<svg xmlns="http://www.w3.org/2000/svg" width="51.662" height="46.527" viewBox="0 0 51.662 46.527">
  <g id="Group_602" data-name="Group 602" transform="matrix(-0.017, 1, -1, -0.017, -9772.734, 21191.754)">
    <g id="Union_5" data-name="Union 5" transform="translate(13219.169 -9479.767)" fill="#ddc28e" opacity="0.75">
      <path d="M-34559.723,74.553l15.344-21.617.129-.391-.129-.4-15.344-22.424c-.008-2.491,2.145-3.914,3.637-2.4l10.613,10.7a.049.049,0,0,0,.027.017l1.066,1.05,10.84,10.639a3.632,3.632,0,0,1,0,4.825l-11.906,11.681c-.008.009-.02.017-.027.026l-10.613,10.7a1.9,1.9,0,0,1-1.359.616C-34558.621,77.572-34559.727,76.339-34559.723,74.553Zm-18.543,0,15.332-21.617.141-.391-.141-.4-15.332-22.424c-.008-2.491,2.145-3.914,3.637-2.4l10.613,10.7.023.026,1.059,1.041,10.84,10.639a3.632,3.632,0,0,1,0,4.825l-11.9,11.681-.023.026-10.613,10.7a1.911,1.911,0,0,1-1.359.616C-34577.168,77.572-34578.273,76.339-34578.266,74.553Z" stroke="none"/>
      <path d="M -34575.98828125 76.57223510742188 L -34575.98828125 76.57223510742188 C -34575.76953125 76.57220458984375 -34575.55078125 76.46426391601562 -34575.33984375 76.25231170654297 L -34564.734375 65.56207275390625 L -34564.71484375 65.53881072998047 L -34564.69140625 65.51689910888672 L -34552.79296875 53.83553314208984 C -34552.40625 53.45728302001953 -34552.17578125 52.82247161865234 -34552.17578125 52.13743209838867 C -34552.17578125 51.45240020751953 -34552.40625 50.81761169433594 -34552.79296875 50.43864059448242 L -34564.7421875 38.70539474487305 L -34575.33984375 28.02126121520996 C -34575.55078125 27.80732154846191 -34575.76953125 27.6988410949707 -34575.98828125 27.6988410949707 C -34576.21484375 27.6988410949707 -34576.45703125 27.81502151489258 -34576.66796875 28.02599143981934 C -34576.99609375 28.35592269897461 -34577.203125 28.8575611114502 -34577.25390625 29.43072128295898 L -34562.03515625 51.6900520324707 L -34561.8515625 52.21304321289062 L -34561.73046875 52.54899978637695 L -34562.0390625 53.40303039550781 L -34562.1171875 53.51434326171875 L -34577.25390625 74.85366058349609 C -34577.203125 75.42089080810547 -34576.99609375 75.91689300537109 -34576.671875 76.24358367919922 C -34576.4609375 76.45555114746094 -34576.21875 76.57225799560547 -34575.98828125 76.57223510742188 M -34557.4453125 76.57223510742188 L -34557.4453125 76.57223510742188 C -34557.2265625 76.57220458984375 -34557.0078125 76.46426391601562 -34556.796875 76.25231170654297 L -34546.19140625 65.56008911132812 C -34546.171875 65.54092407226562 -34546.15625 65.52471923828125 -34546.140625 65.51097106933594 L -34534.2421875 53.83806228637695 C -34533.8515625 53.45425033569336 -34533.62109375 52.81525039672852 -34533.62109375 52.12872314453125 C -34533.625 51.44794082641602 -34533.85546875 50.81640243530273 -34534.23828125 50.43864059448242 L -34545.08203125 39.79828262329102 L -34546.078125 38.81445693969727 C -34546.1171875 38.78419494628906 -34546.15625 38.75109100341797 -34546.19140625 38.71526718139648 L -34556.796875 28.02126121520996 C -34557.0078125 27.80732154846191 -34557.2265625 27.6988410949707 -34557.4453125 27.6988410949707 C -34557.671875 27.6988410949707 -34557.9140625 27.81502151489258 -34558.125 28.02599143981934 C -34558.453125 28.35587501525879 -34558.66015625 28.85748100280762 -34558.7109375 29.43053817749023 L -34543.47265625 51.70096206665039 L -34543.42578125 51.83882141113281 L -34543.296875 52.23801040649414 L -34543.19921875 52.54872131347656 L -34543.4765625 53.39204025268555 L -34543.5625 53.51464080810547 L -34558.7109375 74.85285186767578 C -34558.65625 75.42132568359375 -34558.44921875 75.91823577880859 -34558.125 76.24529266357422 C -34557.9140625 76.45615386962891 -34557.671875 76.57225799560547 -34557.4453125 76.57223510742188 M -34557.4453125 77.57223510742188 C -34558.62109375 77.57240295410156 -34559.7265625 76.33948516845703 -34559.72265625 74.55271911621094 L -34544.37890625 52.93582153320312 L -34544.25 52.54531097412109 L -34544.37890625 52.14612197875977 L -34559.72265625 29.7221622467041 C -34559.7265625 27.93615341186523 -34558.62109375 26.6988410949707 -34557.4453125 26.6988410949707 C -34556.984375 26.6988410949707 -34556.5078125 26.89118385314941 -34556.0859375 27.31835174560547 L -34545.47265625 38.01833343505859 C -34545.46484375 38.02701187133789 -34545.453125 38.03569030761719 -34545.4453125 38.03569030761719 L -34544.37890625 39.08572006225586 L -34533.5390625 49.72496032714844 C -34532.31640625 50.92251968383789 -34532.31640625 53.34368133544922 -34533.5390625 54.54993057250977 L -34545.4453125 66.23051452636719 C -34545.453125 66.23920440673828 -34545.46484375 66.24787139892578 -34545.47265625 66.25655364990234 L -34556.0859375 76.95653533935547 C -34556.5078125 77.38078308105469 -34556.98046875 77.57215881347656 -34557.4453125 77.57223510742188 Z M -34575.98828125 77.57223510742188 C -34577.16796875 77.57240295410156 -34578.2734375 76.33948516845703 -34578.265625 74.55271911621094 L -34562.93359375 52.93582153320312 L -34562.79296875 52.54531097412109 L -34562.93359375 52.14612197875977 L -34578.265625 29.7221622467041 C -34578.26953125 27.93615341186523 -34577.1640625 26.6988410949707 -34575.98828125 26.6988410949707 C -34575.52734375 26.6988410949707 -34575.05078125 26.89118385314941 -34574.62890625 27.31835174560547 L -34564.015625 38.01833343505859 C -34564.0078125 38.02701187133789 -34564 38.03569030761719 -34563.9921875 38.04436111450195 L -34562.93359375 39.08572006225586 L -34552.09375 49.72496032714844 C -34550.87109375 50.92251968383789 -34550.87109375 53.35235977172852 -34552.09375 54.54993057250977 L -34563.9921875 66.23051452636719 C -34564 66.23920440673828 -34564.0078125 66.24787139892578 -34564.015625 66.25655364990234 L -34574.62890625 76.95653533935547 C -34575.05078125 77.38078308105469 -34575.52734375 77.57215881347656 -34575.98828125 77.57223510742188 Z" stroke="none" fill="rgba(112,112,112,0.12)"/>
    </g>
  </g>
</svg>
