<svg id="Компонент_8_1" data-name="Компонент 8 – 1" xmlns="http://www.w3.org/2000/svg" width="19" height="19" viewBox="0 0 19 19">
  <g id="Сгруппировать_509" data-name="Сгруппировать 509" transform="translate(-940 -3950)">
    <g id="Эллипс_24" data-name="Эллипс 24" transform="translate(940 3950)" fill="#c5b7a6" stroke="#c5b7a6" stroke-width="1">
      <circle cx="9.5" cy="9.5" r="9.5" stroke="none"/>
      <circle cx="9.5" cy="9.5" r="9" fill="none"/>
    </g>
  </g>
  <path id="Icon_simple-email" data-name="Icon simple-email" d="M12.52,5.526a6.175,6.175,0,0,1-.2,1.339A3.876,3.876,0,0,1,11.8,8.042a2.748,2.748,0,0,1-.883.836A2.492,2.492,0,0,1,9.628,9.2,1.869,1.869,0,0,1,8.7,8.967a1.6,1.6,0,0,1-.63-.646,2,2,0,0,1-1.689.848A1.718,1.718,0,0,1,4.9,8.377a2.6,2.6,0,0,1-.367-.919,3.962,3.962,0,0,1-.048-1.2,5.568,5.568,0,0,1,.365-1.468,3.99,3.99,0,0,1,.675-1.125,2.855,2.855,0,0,1,.928-.717A2.589,2.589,0,0,1,7.583,2.7a3.508,3.508,0,0,1,.675.058,2.762,2.762,0,0,1,.524.157,2.832,2.832,0,0,1,.434.229c.132.085.266.174.4.263L9.286,7.177a1.253,1.253,0,0,0,.01.441.618.618,0,0,0,.135.272.485.485,0,0,0,.218.142.811.811,0,0,0,.768-.151,1.636,1.636,0,0,0,.412-.524,3.373,3.373,0,0,0,.277-.787,5.4,5.4,0,0,0,.121-.98,6.264,6.264,0,0,0-.154-1.832,3.641,3.641,0,0,0-.678-1.417A3.148,3.148,0,0,0,9.179,1.43a4.41,4.41,0,0,0-1.77-.324,3.909,3.909,0,0,0-1.751.382,4.017,4.017,0,0,0-1.33,1.058,5.077,5.077,0,0,0-.871,1.591,7.172,7.172,0,0,0-.367,1.983,6.593,6.593,0,0,0,.187,2.023,3.654,3.654,0,0,0,.739,1.45,3.085,3.085,0,0,0,1.252.871A4.8,4.8,0,0,0,7,10.752a5.92,5.92,0,0,0,1.134-.122c.187-.037.364-.082.533-.132a4.015,4.015,0,0,0,.459-.165L9.362,11.4a2.633,2.633,0,0,1-.514.254,4.948,4.948,0,0,1-.608.176,5.928,5.928,0,0,1-1.269.142A6.655,6.655,0,0,1,4.658,11.6a4.258,4.258,0,0,1-1.686-1.109A4.657,4.657,0,0,1,1.959,8.661a7.809,7.809,0,0,1-.283-2.542A7.751,7.751,0,0,1,2.163,3.68,6.037,6.037,0,0,1,3.334,1.743,5.339,5.339,0,0,1,5.122.464,5.6,5.6,0,0,1,7.437,0,5.843,5.843,0,0,1,9.68.4,4.363,4.363,0,0,1,11.3,1.532a4.636,4.636,0,0,1,.961,1.746A6.674,6.674,0,0,1,12.52,5.526Zm-6.426.733a2.545,2.545,0,0,0,.132,1.262.677.677,0,0,0,.651.426A.719.719,0,0,0,7.1,7.907a.8.8,0,0,0,.257-.154,1.37,1.37,0,0,0,.26-.314,2.412,2.412,0,0,0,.239-.531l.256-2.93a1.529,1.529,0,0,0-.4-.052,1.376,1.376,0,0,0-.662.152,1.311,1.311,0,0,0-.469.446,2.619,2.619,0,0,0-.311.733,6.22,6.22,0,0,0-.177,1Z" transform="translate(2.33 4.033)" fill="#272424"/>
</svg>
