<svg id="Компонент_2_1" data-name="Компонент 2 – 1" xmlns="http://www.w3.org/2000/svg" width="230.777" height="241.674" viewBox="0 0 230.777 241.674">
  <g id="Layer_2" data-name="Layer 2">
    <g id="Layer_1" data-name="Layer 1" transform="translate(0 0)">
      <path id="Контур_1" data-name="Контур 1" d="M114.711,241.653a113.189,113.189,0,0,1-44.705-8.963,108.552,108.552,0,0,1-16.72-9.045,119.233,119.233,0,0,1-41.2-47.282,117.218,117.218,0,0,1-9.991-30A109.722,109.722,0,0,1,.316,130.629a49.461,49.461,0,0,1,1.37-13.513c0-1.37-.069-2.837-.137-4.249a21.178,21.178,0,0,0-.247-2.412C.85,106.591.234,101.3,4.77,99.491a14.075,14.075,0,0,1,3.125-.809A64.592,64.592,0,0,1,13.445,89.6a8.757,8.757,0,0,1,3-6.729,23.737,23.737,0,0,1,6.99-3.961c2.508-2.837,4.55-5.893,4.372-8.429a4.221,4.221,0,0,0-1.974-3.221C14.158,58.8,11.389,53.374,8.7,48.071c-.452-.877-.918-1.8-1.37-2.741-2.22-3.878-3.728-11.814-2.494-16.542.206-.74.411-1.48.63-2.193,1.014-3.495,1.987-6.852.672-10.388a29.672,29.672,0,0,0-2.371-4.66L3.358,11.3C1.1,9.957,0,9.354,0,8.532A.959.959,0,0,1,.384,7.7a1.466,1.466,0,0,1,1.37-.26A7.181,7.181,0,0,1,4.77,10.547c4.468,2.741,11.855,7.387,14.239,15.212a.644.644,0,0,1,.439-.356.7.7,0,0,1,.767.288,35.495,35.495,0,0,0,2.056,2.947c-.123-4.016,1.275-6.7,3.358-10.69l.192-.37a32.275,32.275,0,0,1,5.194-6.852c2.974-3.248,5.55-6.071,4.92-9.922a.685.685,0,0,1,.343-.7.658.658,0,0,1,.767,0c3.495,2.823,3.152,8.223,2.206,12.7a21.928,21.928,0,0,0,5.331-6.482.672.672,0,0,1,.809-.3.685.685,0,0,1,.466.74,11.24,11.24,0,0,0,0,1.672,12.211,12.211,0,0,1-.11,2.206c0,.26-.4,1.9-.932,3.906A15.308,15.308,0,0,1,56.3,10.971a.7.7,0,0,1,.521.4.672.672,0,0,1,0,.658l-.219.315,2.1-.507a22.243,22.243,0,0,1,11.855.767.7.7,0,0,1,.452.644,4.111,4.111,0,0,1,2.111.315.685.685,0,0,1,.3.74,5.77,5.77,0,0,1,1.617,0,.685.685,0,0,1,.452.274.672.672,0,0,1,.685.439,10.649,10.649,0,0,1,.576,1.59.754.754,0,0,1,.329-.247.685.685,0,0,1,.822.315,13.061,13.061,0,0,1,1.37,5.578.658.658,0,0,1,.466-.356.7.7,0,0,1,.754.384c.343.726,1.261,3.454,1.439,4.111a4.074,4.074,0,0,0,.3.918,24.436,24.436,0,0,1,1.562,11.307,10.964,10.964,0,0,1-.534,2.124A6.51,6.51,0,0,1,86,39.9c2.659-.26,6.852.425,8.73,1.8a.7.7,0,0,1,.274.589.671.671,0,0,1-.343.548c-3.783,2.22-6.1,6.852-8.566,11.677-.439.877-.877,1.768-1.37,2.645a4.961,4.961,0,0,1,1.37.548.685.685,0,0,1,.274.726.7.7,0,0,1-.589.521c-.863.1-1.987,2.056-3.18,4.111-3.111,5.468-7.716,13.527-18.378,10.95a.726.726,0,0,1-.384-.247l-.548.466.672.069c8.072,1,14.294,3.358,16.651,6.318A25.519,25.519,0,0,1,83.724,86.2c.082.164.164.343.233.521a6,6,0,0,1,2.385,1.7,4.194,4.194,0,0,1,.767,4.111A.7.7,0,0,1,86.6,93a.672.672,0,0,1-.658-.219,19.282,19.282,0,0,1-2.96-4.879,7.4,7.4,0,0,0-3.07-.329,29.394,29.394,0,0,0-3.508.836c-5.1,1.37-13.7,3.714-21.3,1.37-6.852-2.056-9.525-6.852-11.444-10.416a20.557,20.557,0,0,0-1.631-2.6l-.082-.137a16.35,16.35,0,0,0-3.495-3.371c-3.042-.617-5.139-1.6-5.482-2.385a.946.946,0,0,1,.329-1.275,1.919,1.919,0,0,1,1.631-.123,15.459,15.459,0,0,1,4.111,2.508,29.561,29.561,0,0,0,16.1-1.508,23.559,23.559,0,0,0,4.386-2.385,16.529,16.529,0,0,0,2.741-2.357h-.6c-1.85,0-3.44-.1-4.016-.082s-1.288,0-1.946,0c-.946,0-1.919,0-2.878.082l-.452.617c-1.809,2.193-4.715,2.947-5.783,2.494a.932.932,0,0,1-.6-.932c.123-1.179,2.741-2.823,3.385-3a13.841,13.841,0,0,1,2.7-.48A16.747,16.747,0,0,0,54.327,56.2c-1.069.384-2.083.658-3.07.932a17.446,17.446,0,0,0-5.482,2.22,8.031,8.031,0,0,0-1.042.877c-1.124,3.508-3,6.7-5.18,8.127a.726.726,0,0,1-.562.082.672.672,0,0,1-.425-.37c-.987-2.111,2.549-6.387,4.893-8.593a17.2,17.2,0,0,0,.754-7.894,15.8,15.8,0,0,0-6.524,4l-.288.6c-.192.4-4.632,9.593-6.757,9.593h0a.685.685,0,0,1-.534-.315.726.726,0,0,1,0-.63,32.467,32.467,0,0,1,6.414-10,11.581,11.581,0,0,0,1.069-4.4,10.621,10.621,0,0,0-1.124-4.276c-.274-.658-.534-1.37-.754-2l-1.37.562a15.5,15.5,0,0,0-4,1.891,17.816,17.816,0,0,1,.082,4.934s-.987,4.824-2.248,4.728c-.178,0-.726-.123-.7-.973a9.5,9.5,0,0,0-.288-2.028c-.425-2.015-.946-4.509,1.645-7.14a46.884,46.884,0,0,0-3.413-10.361c-.247-.534-.534-1.042-.822-1.535.534,1.946,1.3,4.207,2.344,6.935a.672.672,0,0,1-.288.836.7.7,0,0,1-.877-.151c-3.125-3.769-4.427-7.579-3.851-11.4l-.164-.219c-.548-.726-1.11-1.466-1.645-2.234-.11.589-.247,1.179-.411,1.754a42.2,42.2,0,0,1-.74,8.771,21.736,21.736,0,0,0,1.521,12.7l.959,1.014c.3.3.6.6.9.932l1.11,1.247c.548.63,1.124,1.288,1.727,1.878,1.37,1.37,3.55,4.646,2.741,8.1a.863.863,0,0,1-.164.315.726.726,0,0,1-.658.206.644.644,0,0,1-.507-.425,29.808,29.808,0,0,0-3.3-5.633A46.008,46.008,0,0,1,19.311,52a10.635,10.635,0,0,1-2.316-3.7c-1.768-5.071-.767-9.895.192-14.568.192-.959.48-1.919.74-2.851.123-.411.247-.836.356-1.261a14.993,14.993,0,0,0-.466-3.33c-1.864-6.3-7.332-10.553-11.594-13.28.672,1.3,1.138,2.426,1.275,2.741,1.466,4.016.439,7.524-.644,11.238-.206.713-.425,1.37-.617,2.152C5.071,33.53,6.5,40.971,8.553,44.713c.507.918.973,1.85,1.37,2.741,2.741,5.359,5.3,10.4,16.72,18.666a5.66,5.66,0,0,1,2.535,4.235c.164,2.357-1.192,4.947-3.084,7.442l1.37-.589a.713.713,0,0,1,.918.343.685.685,0,0,1-.343.9c-.987.452-2.015.863-3.015,1.275l-.754.3a67.229,67.229,0,0,1-4.934,4.947c-1.247,1.206-2.316,2.248-2.905,2.96s-1.083,1.37-1.6,2.056a11.265,11.265,0,0,0,.151,1.138,4.48,4.48,0,0,0,.219,1.014,7.113,7.113,0,0,1,.247,3.522c-.85,3.289-3.878,3.837-6.647,4.249q-1.233,2.508-2.261,5.18a69.511,69.511,0,0,0-2.933,9.511c-.219.891-.411,1.754-.589,2.59v1.727a78.759,78.759,0,0,0,.274,8.017,138.3,138.3,0,0,0,5.482,29.205A119.4,119.4,0,0,0,38.923,207.02a112.38,112.38,0,0,0,77.611,31.192,105.528,105.528,0,0,0,16.747-1.371,113.23,113.23,0,0,0,80.544-57.561,114.463,114.463,0,0,0,3.056-99.059,115.272,115.272,0,0,0-59.452-57.561s-5.838-2.344-7.072-2.741c-13.321-4.564-26.039-5.77-37.127-3.659l-.9.932a25.628,25.628,0,0,1-3.166,2.919A12.65,12.65,0,0,1,98.4,21.661a6.852,6.852,0,0,1-3.988.548,4.111,4.111,0,0,1-3.015-3.1,2.659,2.659,0,0,1,.946-2.741.685.685,0,0,1,.973.164,10.306,10.306,0,0,0,5.03,3.728c.521-.233,1.042-.493,1.549-.767l.329-.164a47.734,47.734,0,0,1,12.458-4.249,12.691,12.691,0,0,1,3.55-2.741A15.665,15.665,0,0,1,124,11.465a110.133,110.133,0,0,1,31.521,6.852l2.453.946c29.013,11.827,52.394,34.482,64.139,62.166A118.479,118.479,0,0,1,197.2,208.514a116.492,116.492,0,0,1-60.014,31,121.21,121.21,0,0,1-22.5,2.111M1.81,124.722a46.09,46.09,0,0,0-.123,5.921,107.31,107.31,0,0,0,1.768,15.541,116.34,116.34,0,0,0,9.854,29.644,117.863,117.863,0,0,0,40.731,46.734A105.914,105.914,0,0,0,70.485,231.5,117.054,117.054,0,0,0,196.2,207.637,117.109,117.109,0,0,0,220.869,82.073c-11.608-27.41-34.715-49.749-63.385-61.439l-2.439-.946a108.749,108.749,0,0,0-31.138-6.8,14.541,14.541,0,0,0-7.1.754,8.224,8.224,0,0,0-1.521.918c10.758-1.617,22.956-.26,35.633,4.111,1.275.425,6.853,2.741,7.154,2.741a116.615,116.615,0,0,1,60.178,58.273,115.848,115.848,0,0,1-3.084,100.279,114.669,114.669,0,0,1-81.544,58.342,113.559,113.559,0,0,1-95.537-30.247A120.932,120.932,0,0,1,7.511,156.614a139.353,139.353,0,0,1-5.551-29.52c-.069-.809-.11-1.617-.151-2.44m5.345-24.436a9.319,9.319,0,0,0-1.919.507c-3.563,1.453-3.056,5.77-2.6,9.593.069.63.137,1.247.192,1.823a68.924,68.924,0,0,1,2.439-7.469c.589-1.508,1.22-2.988,1.891-4.427m6.551-8.579a60.506,60.506,0,0,0-4.111,6.852c2.152-.37,4-.959,4.55-3.084A6,6,0,0,0,13.9,92.57a5.02,5.02,0,0,0-.192-.85m71.416-2.631c.219.4.452.795.7,1.165a2.974,2.974,0,0,0-.562-1.014.712.712,0,0,0-.137-.151M43.171,75.919a24.039,24.039,0,0,1,1.672,2.741c1.9,3.508,4.276,7.867,10.621,9.758,7.277,2.179,15.6-.082,20.557-1.37a30.152,30.152,0,0,1,3.728-.877,8.825,8.825,0,0,1,2.481.1,22.833,22.833,0,0,0-2.741-4.742c-2.467-3.18-10.1-5.413-17.816-6.14a19.8,19.8,0,0,1-5.934,2l-2.056.48c-5.825,1.453-8.963-.726-9.086-.822a.672.672,0,0,1-.288-.617.7.7,0,0,1,.4-.562c3.618-1.7,9.8-2.371,16.569-1.85a12.638,12.638,0,0,0,2.069-1.6,41.115,41.115,0,0,0,4.276-4.92l1.37-1.782h-4.92A17.446,17.446,0,0,1,60.3,69.162a25.011,25.011,0,0,1-4.632,2.522,31.165,31.165,0,0,1-14.623,1.891,13.075,13.075,0,0,1,2.165,2.344m-22.2,5.564a17.3,17.3,0,0,0-3.646,2.4,7.592,7.592,0,0,0-2.289,3.577l.274-.329a42.2,42.2,0,0,1,3.015-3.084c.809-.781,1.713-1.645,2.618-2.563m25.669-4.906a11.964,11.964,0,0,0,6.619,0c.74-.178,1.37-.343,2.083-.48,1.22-.288,2.289-.521,3.275-.85a35.071,35.071,0,0,0-11.978,1.37m33.33-11.759a23.641,23.641,0,0,1-11.745,8.333c5.893-.1,9.265-4.29,11.745-8.333m-8.716.576a23.175,23.175,0,0,0-2.549,2.96,51.667,51.667,0,0,1-3.495,4.111c9.333-1.878,13.965-8.086,17.46-14.39a37.92,37.92,0,0,0-6.112-.356l-.206.11a11.937,11.937,0,0,1-4.111,1.508c-.425,0-1.37.192-1.754-.507-.192-.411,0-.85.452-1.37.767-.726,2.823-1.083,5.208-1.151a32.756,32.756,0,0,0,5.715-3.673,16.569,16.569,0,0,0,3.166-4.3v-.123a43.857,43.857,0,0,1-4.7.343,39.014,39.014,0,0,0-4.427.343l-.795.151a15.843,15.843,0,0,1-7.8,5.482c-1,.137-1.37-.26-1.549-.6-.247-.548,0-1.233.754-1.85a19.529,19.529,0,0,1,7.894-4.139h0A16.254,16.254,0,0,0,77.269,35.64a57.1,57.1,0,0,0-10.114,5.482,24.958,24.958,0,0,1-3.015,4.111.8.8,0,0,1-.206.151c-.26.137-1.055.548-1.48-.082-.767-1.11,2.631-4.207,2.741-4.344a9.044,9.044,0,0,1,.85-.726,35.742,35.742,0,0,0,3.289-9.169l-.343.192a67.99,67.99,0,0,0-10.964,6.99,16.2,16.2,0,0,1-1.521,4.029s-1.686,3.084-2.8,2.96a.85.85,0,0,1-.7-.713c-.452-2.289,1.192-4.687,3.851-7a42.089,42.089,0,0,0,.7-7.222,49.225,49.225,0,0,1,.548-6.455,20.105,20.105,0,0,0-6.291,2.4,48.173,48.173,0,0,1-1.727,5.167,2.762,2.762,0,0,1-.206.507c-.959,2.412-1.754,3.961-2.741,4.276a1.233,1.233,0,0,1-1.083-.178.685.685,0,0,1-.3-.658c0-.26.069-.548.1-.877a10.963,10.963,0,0,1,4.85-9.1c.139-.453.276-.906.4-1.372.973-3.289,2.015-6.852,3.084-9.593-4.111,1.261-7.4,3.18-8.689,7.743a.685.685,0,0,1-.85.466.672.672,0,0,1-.466-.836c1.576-5.605,5.783-7.647,10.69-9l.274-.548a14.746,14.746,0,0,0-11.074,4.92c-.822,2.741-1.823,5.263-2.741,5.619a.7.7,0,0,1-.9-.411c-.466-1.37.26-3.33,1.932-5.386.137-.178.288-.356.439-.521a56.025,56.025,0,0,0,1.549-5.989,8.415,8.415,0,0,0,.082-1.3,17.282,17.282,0,0,1-5.646,5.619c-.274,1.083-.576,2.069-.809,2.892s-.356,1.179-.452,1.59a27.012,27.012,0,0,1-2.3,5.688,17.734,17.734,0,0,0-2.33,7.346,2.234,2.234,0,0,1,.233-.274,62.729,62.729,0,0,0,5.8-7.442l.713-1.014a.713.713,0,0,1,.644-.288.685.685,0,0,1,.562.452,24.493,24.493,0,0,1,.493,2.577c.164,1,.343,2.138.466,2.563a66.251,66.251,0,0,1,1.124,10.4,20.42,20.42,0,0,1,9.237-2.261.726.726,0,0,1,.493.3.713.713,0,0,1,.082.576c0,.206-.233,1.192-.4,2.152a54.217,54.217,0,0,1-1.124,5.482,10.584,10.584,0,0,0-.288,1.042l-.206.863c4.111-.932,10.046-1.453,12.8-.781a.685.685,0,0,1,.452.37c1.37,2.741-.466,7.757-2.59,11.4h.37c.493-.069.973-.137,1.453-.233s.959-.206,1.453-.288a15.226,15.226,0,0,0,3.687-1.014.685.685,0,0,1,.809.151.7.7,0,0,1,0,.822l-1.055,1.8q-1.375,2.457-2.988,4.769a44.167,44.167,0,0,0,5.3,0,.685.685,0,0,1,.781,1.124m-20.3.507a11.321,11.321,0,0,0-1.179.274,7.442,7.442,0,0,0-1.946,1.37,6.277,6.277,0,0,0,3.125-1.6m-8.949-2.741a17.35,17.35,0,0,0-1.836,2.741,14.239,14.239,0,0,0,1.836-2.741m28.355,1.069h0M58.1,64.229c.767,0,2.083,0,3.673.082h1.658a45.32,45.32,0,0,0,3.55-5.482,1.37,1.37,0,0,0,.11-.192c-.726.192-1.453.329-2.179.466l-1.37.274c-.521.123-1.042.192-1.549.26l-1.083.164-.48.11a9.21,9.21,0,0,1-2.741,2.878.8.8,0,0,1-.795-.11c-.534-.452-.3-1.727-.3-1.741a2.851,2.851,0,0,1,1.288-1.453,6.5,6.5,0,0,1,1.672-.754,28.385,28.385,0,0,0,1.782-3.262c1.494-3.221,2.042-6.044,1.508-7.647-3.289-.644-9.278.26-12.718,1.11a3,3,0,0,1-1.042,1.179,2.467,2.467,0,0,1-1.919.219c-.973-.26-.822-1-.795-1.083.123-.521,1.206-1.042,2.741-1.494a15.433,15.433,0,0,0,.439-1.59,12.236,12.236,0,0,1,.315-1.192c.288-.795.754-3.44,1.069-5.194l.315-1.4A20.091,20.091,0,0,0,42.705,41a6.455,6.455,0,0,1-1.96,3.193,1.617,1.617,0,0,1-1.9.384.822.822,0,0,1-.3-1.028,8.127,8.127,0,0,1,2.919-3.371c0-.192,0-.4,0-.63A62.563,62.563,0,0,0,40.4,29.267c-.137-.507-.315-1.576-.507-2.741a6.629,6.629,0,0,0-.137-.863,60.466,60.466,0,0,1-5.729,7.3A6.442,6.442,0,0,0,32.892,35a23.437,23.437,0,0,0,.37,2.494s.767,4.111-.534,5.482a1.37,1.37,0,0,1-1.275.356,1.206,1.206,0,0,1-.9-.973c-.439-1.37,0-4.824.959-7.5a17.666,17.666,0,0,1,2.481-10.484,26.039,26.039,0,0,0,2.193-5.4c.11-.439.274-1,.466-1.658s.3-1,.466-1.59c-7.524,4.249-12.047,8.7-13.472,13.28a9.661,9.661,0,0,0,.164,1.727,28.78,28.78,0,0,1,2.837,4.509,46.6,46.6,0,0,1,3.371,9.991,19.325,19.325,0,0,1,3.8-1.8c.74-.288,1.37-.562,2.042-.863a.74.74,0,0,1,.589,0,.672.672,0,0,1,.37.466,21.82,21.82,0,0,0,.918,2.59,11.978,11.978,0,0,1,1.233,4.838,11.416,11.416,0,0,1-.356,2.522A16.2,16.2,0,0,1,44.542,50.1a.7.7,0,0,1,.822.48,15.6,15.6,0,0,1,0,7.373,19.927,19.927,0,0,1,5.605-2.206A29.206,29.206,0,0,0,54.7,54.553a.658.658,0,0,1,.576,0,.672.672,0,0,1,.356.452c.534,2.3-.343,6.359-1.836,9.278h4.358M23.3,56.307c.4.617.795,1.206,1.192,1.8.713,1.1,1.37,2.152,2.028,3.193a9.169,9.169,0,0,0-2.289-4.016c-.315-.315-.63-.644-.932-.973m60.8,2.1h0m-5.126-1.974a35.385,35.385,0,0,1,4.372.466c.535-.987,1.028-1.987,1.521-2.96,2.344-4.646,4.577-9.045,8.127-11.608A15.829,15.829,0,0,0,86.136,41.3a5.085,5.085,0,0,0-2.96,1.138,7.167,7.167,0,0,1-1.014.644,5.783,5.783,0,0,1-2.892,2.892c-.959.288-1.37,0-1.37-.425-.37-1.083,2.631-3.084,3.33-3.508a11.9,11.9,0,0,0,1.206-3.563A23.038,23.038,0,0,0,80.86,27.8c-.151-.439-.274-.781-.343-1.028s-.288-.959-.534-1.686a12.963,12.963,0,0,1-1.042,2.152,35.738,35.738,0,0,1-.726,4.111.681.681,0,0,1-1.343-.151,9.922,9.922,0,0,1,.315-3.618l.11-.192.315-.521a27.258,27.258,0,0,0,.164-5.222c-.11.411-.233.822-.384,1.233a14.462,14.462,0,0,1-.795,1.782,8.456,8.456,0,0,1-1.96,4.619.7.7,0,0,1-.644.164.685.685,0,0,1-.48-.466c-.233-.74.356-1.96,1.37-4.029.123-.233.247-.48.356-.713.206-1.151.3-2.275.37-3.042v-.37a11.979,11.979,0,0,0-.219-3.563c-.274.411-.589.863-.959,1.37l-.137.192a34.524,34.524,0,0,0-2.056,3.234c-1.371,2.412-6.482,8.47-8.8,9.813a.685.685,0,0,1-.9-.178.672.672,0,0,1,.1-.9,67.962,67.962,0,0,0,7.442-10.224c.192-.343.411-.877.658-1.439a18.927,18.927,0,0,1,1.521-3.084c-.288.1-.576.219-.891.343l-.1.069a30.425,30.425,0,0,0-6.222,3.413l-.411.26a11.95,11.95,0,0,0-1.22.822,4.59,4.59,0,0,0-.288.493,13.91,13.91,0,0,0-.672,1.37,13.9,13.9,0,0,1-.822,1.7.685.685,0,0,1-.74.329.7.7,0,0,1-.534-.617,4.947,4.947,0,0,1,2.015-4.262,10.964,10.964,0,0,1,2.042-2.138c.4-.315.809-.617,1.22-.918a19.078,19.078,0,0,0,1.686-1.37,5.893,5.893,0,0,1,.863-.6l-1.028.151a25.642,25.642,0,0,0-5.838,1.8c-.658.329-1.275.713-1.932,1.124a16.172,16.172,0,0,1-3.193,1.713.658.658,0,0,1-.781-.233.7.7,0,0,1,0-.836A18.762,18.762,0,0,1,60.3,14.37a12.334,12.334,0,0,1,3.577-1.22c.26,0,1-.164,1.891-.274a21.284,21.284,0,0,0-6.852.3c-1.1.247-2.165.507-3.193.767A106.9,106.9,0,0,0,52.3,24.361a25.3,25.3,0,0,1,6.469-2.069.713.713,0,0,1,.63.192.74.74,0,0,1,.178.63,42.6,42.6,0,0,0-.644,7.236,55.028,55.028,0,0,1-.452,5.8A78.24,78.24,0,0,1,68.4,30.035c.672-.356,1.37-.74,1.562-.863a.672.672,0,0,1,.685-.206.685.685,0,0,1,.48.836h0l-.219.863a51.706,51.706,0,0,1-2.385,7.963,87.4,87.4,0,0,1,9.059-4.619.713.713,0,0,1,.6,0,.726.726,0,0,1,.356.493A18.008,18.008,0,0,1,76.392,47.55c1.288-.164,2.741-.219,4.111-.274a28,28,0,0,0,5.838-.6.672.672,0,0,1,.726.247.685.685,0,0,1,0,.767c-.288.466-.562.959-.85,1.439a17.473,17.473,0,0,1-3.44,4.66,25.189,25.189,0,0,1-3.851,2.645m-6.291-6.414a19.831,19.831,0,0,0-5.043,3.221,15.075,15.075,0,0,0,5.043-3.221M29.124,47.975a5.674,5.674,0,0,0-.589,5.085v.192a11.992,11.992,0,0,0,.493-1.8,18.049,18.049,0,0,0,0-3.481m26.9-7.73a6.743,6.743,0,0,0-1.645,2.837,12.085,12.085,0,0,0,.973-1.439c.26-.466.466-.932.672-1.37m-23.9-1.891a11.251,11.251,0,0,0-.192,3.536,7.634,7.634,0,0,0,.192-3.536M49.955,27.774a9.854,9.854,0,0,0-2.741,6.647,16.775,16.775,0,0,0,1.37-2.96c.1-.247.178-.439.233-.562a30.33,30.33,0,0,0,1.1-3.125M69.9,29.432h0M37.388,2.584c-.274,3.508-2.741,6.236-5.372,9.086a31.933,31.933,0,0,0-4.975,6.537l-.206.37a31.1,31.1,0,0,0-2.741,6.441q3.741-5.825,13.582-11.142c.918-3.7,1.59-8.374-.219-11.293M92.824,17.975a1.576,1.576,0,0,0,0,.836,2.741,2.741,0,0,0,1.96,2.056,4.112,4.112,0,0,0,1.7,0,11.745,11.745,0,0,1-3.646-2.878m7.62,2.741h0a10.717,10.717,0,0,0,8.086-1.713,19.737,19.737,0,0,0,2.467-2.22,46.063,46.063,0,0,0-10.087,3.687l-.329.164-.151.082M74.761,15.645C73.623,15.8,72.65,18.1,72.02,19.66l-.247.576c.48-.795.959-1.508,1.494-2.248l.137-.206a13.486,13.486,0,0,0,1.371-2.138m-12.143-.754a10,10,0,0,0-1.124.425c.37-.151.74-.3,1.124-.425" transform="translate(0.002 0.02)" fill="#DDC28E"/>
      <path id="Контур_2" data-name="Контур 2" d="M32.334,95.543h-.178a.644.644,0,0,1,.233-.1,7.1,7.1,0,0,0,5.276-7.277A6.619,6.619,0,0,0,33.7,82.428c-1.836-.918-5.7-.713-8.538-.562H23.179a24.353,24.353,0,0,1-2.577-.082H19.328a.617.617,0,0,0-.617.356.726.726,0,0,0,.274.781,2.919,2.919,0,0,1,.946,2.371c0,.315,0,1.946,0,4.235V106.74h0c.123,5.016-.384,6.359-1.192,6.852-.4.288-.452.6-.37.822s.384.411.9.329a26.046,26.046,0,0,1,3.138-.123h2.823c1.645,0,3.508.1,4.482.1a11.9,11.9,0,0,0,9.415-4.413,9.84,9.84,0,0,0,2.042-6.085c0-1.9-.63-8.223-8.8-8.675m-5.482,16.83c-1.233-.343-3.111-1.37-3.084-1.987V84.346c0-.274.946-.74,4.482-.74a5.071,5.071,0,0,1,5.331,5.345c0,4.016-1.8,5.4-4.865,6.441a.781.781,0,0,0-.576.795.754.754,0,0,0,.672.713l.562.082a9.429,9.429,0,0,1,4.111,1.275,6.743,6.743,0,0,1,3.358,6.236c-.123,3.988-1.37,6.386-4.111,7.579a9.059,9.059,0,0,1-6.03.37" transform="translate(6.796 30.309)" fill="#DDC28E"/>
      <path id="Контур_3" data-name="Контур 3" d="M161.062,113.587c-.48-.164-1.37-1.288-2.439-3.947-.617-1.672-10.566-27.52-10.745-27.931s-.384-.48-.548-.48-.466.206-.644.63-9.826,25.71-10.745,27.862l-.1.274a7.784,7.784,0,0,1-2.193,3.659.754.754,0,0,0-.356.836.726.726,0,0,0,.795.4,14.212,14.212,0,0,1,3.837,0h.178a.63.63,0,0,0,.589-.329.891.891,0,0,0-.178-1.014,2.179,2.179,0,0,1-.151-2.3c.192-.466,3.1-8.456,3.248-8.922a.37.37,0,0,1,.274-.274h9.744c.329,0,.343,0,.411.206l.082.192c.452.959,2.851,7.634,3.33,9.47.206.822.165,1.371-.123,1.617a1.014,1.014,0,0,0-.315,1.069c0,.123.219.329.7.3s1.741-.123,2.535-.123a9.914,9.914,0,0,1,1.713.082,4.539,4.539,0,0,0,1.069,0c.562,0,.7-.3.726-.452a1.092,1.092,0,0,0-.63-.85M151.3,99.773a.439.439,0,0,1-.206,0h-8.607a2.418,2.418,0,0,1,.082-.233v-.164c.493-1.165,3.933-10.841,4.112-11.279a1.111,1.111,0,0,1,.11-.247l.069.178c.137.343.9,2.426,1.713,4.646,1.466,4.029,2.439,6.674,2.508,6.852a1.479,1.479,0,0,1,.082.247" transform="translate(49.379 30.123)" fill="#DDC28E"/>
      <path id="Контур_4" data-name="Контур 4" d="M68.031,113.619c-.672-.521-1.1-1.85-1.1-6.852V85.3c.123-1.617.576-2.165.9-2.439a.685.685,0,0,0,.247-.767.589.589,0,0,0-.589-.356,8.757,8.757,0,0,0-.987.069c-.356,0-.754.082-1.233.1a5.479,5.479,0,0,1-1.37-.1,3.82,3.82,0,0,0-1-.069.63.63,0,0,0-.617.37.713.713,0,0,0,.247.767,2.837,2.837,0,0,1,.973,2.412V106.7c0,1.836-3.248,4.111-4.906,4.742a10.32,10.32,0,0,1-9.443-.521c-2.124-1.48-3.262-4.111-3.262-7.428V85.3a3.289,3.289,0,0,1,.877-2.439.7.7,0,0,0,.233-.767.589.589,0,0,0-.576-.356,6.3,6.3,0,0,0-1.055.069,10.762,10.762,0,0,1-1.37.1,5.576,5.576,0,0,1-1.37-.1,4.4,4.4,0,0,0-1.069-.069.63.63,0,0,0-.63.4.658.658,0,0,0,.288.726,3.275,3.275,0,0,1,.918,2.426v17.816c0,4.536,1.042,7.661,3.207,9.593a10.7,10.7,0,0,0,7.017,2.289,20.449,20.449,0,0,0,4.893-.617,17.638,17.638,0,0,0,5.879-2.741c.123-.123.206-.151.192-.164a.521.521,0,0,1,0,.11c0,1.713.206,2.741.63,3.056a.685.685,0,0,0,.521.151h1.384a7.192,7.192,0,0,1,1.069,0h.576c.452,0,.767-.11.863-.384s.1-.425-.356-.754" transform="translate(15.161 30.311)" fill="#DDC28E"/>
      <path id="Контур_5" data-name="Контур 5" d="M95.334,113.619c-.726-.534-1.1-1.768-1.1-6.99V85.263c.123-1.562.548-2.1.918-2.4a.713.713,0,0,0,.288-.767.617.617,0,0,0-.589-.356H89.962a.589.589,0,0,0-.576.356.713.713,0,0,0,.247.781c.247.192.822.672.946,2.371v9.374c0,.26-.247.521-.767.521H73.982c-.535,0-.767-.26-.767-.521v-9.36c.123-1.713.685-2.193.946-2.4a.713.713,0,0,0,.247-.767.617.617,0,0,0-.589-.356,6.509,6.509,0,0,0-1.1.069,9.915,9.915,0,0,1-1.37.1,5.382,5.382,0,0,1-1.371-.1,4.658,4.658,0,0,0-1.11-.069.589.589,0,0,0-.589.356.713.713,0,0,0,.247.781c.247.192.822.658.946,2.371v21.366c0,5.153-.452,6.482-1.179,6.99-.4.288-.439.6-.343.822a.713.713,0,0,0,.85.315l1.371-.082h3.44a.754.754,0,0,0,.891-.329c.082-.219,0-.548-.411-.809-.74-.548-1.165-1.878-1.165-6.976V97.666c0-.206.192-.3.452-.3H89.825c.26,0,.411.1.452.26v8.908c.123,5.482-.466,6.565-1.138,6.99-.4.288-.439.6-.343.822a.617.617,0,0,0,.617.343h.233l1.439-.082h2l1.371.082c.644.11.836-.178.891-.315a.821.821,0,0,0-.37-.822" transform="translate(25.162 30.311)" fill="#DDC28E"/>
      <path id="Контур_6" data-name="Контур 6" d="M121.222,113.587c-.48-.164-1.37-1.288-2.439-3.947-.63-1.686-10.566-27.533-10.745-27.931s-.4-.48-.548-.48a.947.947,0,0,0-.644.63c-.178.425-9.826,25.7-10.745,27.835l-.1.274a7.784,7.784,0,0,1-2.193,3.659.754.754,0,0,0-.356.836.726.726,0,0,0,.795.4,14.213,14.213,0,0,1,3.837,0h.233a.63.63,0,0,0,.589-.329.891.891,0,0,0-.178-1.014,2.179,2.179,0,0,1-.151-2.3c.178-.439,3.1-8.442,3.248-8.922a.37.37,0,0,1,.274-.274h9.662c.343,0,.356,0,.425.206l.082.192c.452.959,2.851,7.634,3.33,9.47.206.822.164,1.37-.123,1.617a1.014,1.014,0,0,0-.315,1.069c0,.123.219.329.7.3s1.741-.123,2.535-.123a9.66,9.66,0,0,1,1.7.082,4.672,4.672,0,0,0,1.083,0c.562,0,.7-.3.726-.452a1.092,1.092,0,0,0-.63-.85m-9.826-13.787a.438.438,0,0,1-.206,0h-8.5a2.41,2.41,0,0,1,.082-.233v-.164c.521-1.22,3.933-10.813,4.111-11.279a1.11,1.11,0,0,1,.11-.247l.069.178c.137.329.891,2.426,1.7,4.632,1.48,4.029,2.453,6.688,2.535,6.852a.439.439,0,0,1,.069.247" transform="translate(34.619 30.123)" fill="#DDC28E"/>
      <path id="Контур_7" data-name="Контур 7" d="M136.23,109.492a.918.918,0,0,0-1.042.329,8.991,8.991,0,0,1-3.961,2.289,13.869,13.869,0,0,1-6.017.3,2.028,2.028,0,0,1-1.823-1.782c-.082-.973-.123-2.316-.123-3.974V85.3a2.7,2.7,0,0,1,.946-2.4.713.713,0,0,0,.247-.767.617.617,0,0,0-.589-.356h-4.879a.589.589,0,0,0-.589.356.74.74,0,0,0,.247.781c.343.274.9.74.9,2.371v22.476c0,2.028.123,4.824-1.11,5.852a.713.713,0,0,0-.356.781.754.754,0,0,0,.754.4H126.5c1.37,0,4.482,0,6.524.1H134.8a1.083,1.083,0,0,0,1.261-.987c.151-.9.4-2.563.439-3.426a.685.685,0,0,0-.329-.795" transform="translate(43.745 30.326)" fill="#DDC28E"/>
      <path id="Контур_8" data-name="Контур 8" d="M46.221,123.961c0,1.055-.891,1.686-2.33,1.686H40.725v-7.538H43.6c1.37,0,2.083.617,2.083,1.549h0c0,1.1-.891,1.686-2.165,1.686H42.3v.946h1.37c1.658,0,2.522.589,2.522,1.617Zm1.069,0h0c0-1.371-.9-1.946-2.015-2.289a2.275,2.275,0,0,0,1.494-2.179h0a2.138,2.138,0,0,0-.6-1.521,3.536,3.536,0,0,0-2.481-.781H39.67v9.456h4.194c2.069,0,3.426-.959,3.426-2.577m11.882-2.124a3.714,3.714,0,0,1-3.7,3.878,3.769,3.769,0,0,1-3.728-3.906h0a3.714,3.714,0,0,1,7.428,0Zm1.11,0h0a4.824,4.824,0,1,0-9.593,0h0a4.742,4.742,0,0,0,4.8,4.865,4.8,4.8,0,0,0,4.838-4.893m11.622.685v-5.482H70.876V122.6c0,2.069-1.11,3.125-2.851,3.125a2.741,2.741,0,0,1-2.892-3.193v-5.482H64.078v5.482a3.934,3.934,0,0,0,7.867-.082m7.743-4.427h3.18v-.836H75.4v.987h3.166v8.47h1.083Zm6.852,8.47H87.6v-9.306H86.541Zm9.881-.822a3.755,3.755,0,0,1-3.714-3.906h0a3.714,3.714,0,0,1,3.7-3.879,3.755,3.755,0,0,1,3.714,3.906h0a3.714,3.714,0,0,1-3.7,3.878m3.824,2.179h1.59l-2.344-2.22a4.961,4.961,0,0,0,1.741-3.81h0a4.824,4.824,0,1,0-9.593,0h0a4.838,4.838,0,0,0,6.852,4.413Zm12.609-5.4v-5.482h-1.069v5.482c0,2.069-1.1,3.125-2.851,3.125s-2.878-1.151-2.878-3.193V116.9h-1.069v5.482a3.934,3.934,0,0,0,7.867-.082m4.111,4.111h6.852v-.973h-5.7v-3.3h5.167V121.3h-5.167v-3.234h5.77v-.877h-6.852Zm22.942-2.371h0c0-1.453-.973-2.22-3.084-2.741s-2.563-.946-2.563-1.836h0c0-.85.781-1.535,2.015-1.535a4.112,4.112,0,0,1,2.741,1.028l.617-.822a4.934,4.934,0,0,0-3.317-1.151,2.741,2.741,0,0,0-3.111,2.577h0c0,1.549,1,2.248,3.18,2.741s2.453.918,2.453,1.8h0c0,.918-.836,1.6-2.1,1.6a4.523,4.523,0,0,1-3.248-1.37l-.658.781a5.482,5.482,0,0,0,3.865,1.521c1.864,0,3.221-1.055,3.221-2.741M150.885,120h0c0-1.864-1.37-3-3.536-3h-3.618v9.456H144.8v-8.47h2.385c1.521,0,2.535.7,2.535,2.056h0c0,1.247-1.028,2.083-2.59,2.083h-.754v.973h.713c2.015,0,3.714-1.055,3.714-3.1m8.771,2.96h-4.331l2.152-4.81Zm2.741,3.467-4.3-9.593h-1l-4.3,9.593h1.1l1.11-2.494h5.153l1.1,2.494Z" transform="translate(14.7 43.184)" fill="#DDC28E"/>
    </g>
  </g>
  <g id="Layer_2-2" data-name="Layer 2">
    <g id="Layer_1-2" data-name="Layer 1" transform="translate(0 0)">
      <path id="Контур_1-2" data-name="Контур 1" d="M114.711,241.653a113.189,113.189,0,0,1-44.705-8.963,108.552,108.552,0,0,1-16.72-9.045,119.233,119.233,0,0,1-41.2-47.282,117.218,117.218,0,0,1-9.991-30A109.722,109.722,0,0,1,.316,130.629a49.461,49.461,0,0,1,1.37-13.513c0-1.37-.069-2.837-.137-4.249a21.178,21.178,0,0,0-.247-2.412C.85,106.591.234,101.3,4.77,99.491a14.075,14.075,0,0,1,3.125-.809A64.592,64.592,0,0,1,13.445,89.6a8.757,8.757,0,0,1,3-6.729,23.737,23.737,0,0,1,6.99-3.961c2.508-2.837,4.55-5.893,4.372-8.429a4.221,4.221,0,0,0-1.974-3.221C14.158,58.8,11.389,53.374,8.7,48.071c-.452-.877-.918-1.8-1.37-2.741-2.22-3.878-3.728-11.814-2.494-16.542.206-.74.411-1.48.63-2.193,1.014-3.495,1.987-6.852.672-10.388a29.672,29.672,0,0,0-2.371-4.66L3.358,11.3C1.1,9.957,0,9.354,0,8.532A.959.959,0,0,1,.384,7.7a1.466,1.466,0,0,1,1.37-.26A7.181,7.181,0,0,1,4.77,10.547c4.468,2.741,11.855,7.387,14.239,15.212a.644.644,0,0,1,.439-.356.7.7,0,0,1,.767.288,35.495,35.495,0,0,0,2.056,2.947c-.123-4.016,1.275-6.7,3.358-10.69l.192-.37a32.275,32.275,0,0,1,5.194-6.852c2.974-3.248,5.55-6.071,4.92-9.922a.685.685,0,0,1,.343-.7.658.658,0,0,1,.767,0c3.495,2.823,3.152,8.223,2.206,12.7a21.928,21.928,0,0,0,5.331-6.482.672.672,0,0,1,.809-.3.685.685,0,0,1,.466.74,11.24,11.24,0,0,0,0,1.672,12.211,12.211,0,0,1-.11,2.206c0,.26-.4,1.9-.932,3.906A15.308,15.308,0,0,1,56.3,10.971a.7.7,0,0,1,.521.4.672.672,0,0,1,0,.658l-.219.315,2.1-.507a22.243,22.243,0,0,1,11.855.767.7.7,0,0,1,.452.644,4.111,4.111,0,0,1,2.111.315.685.685,0,0,1,.3.74,5.77,5.77,0,0,1,1.617,0,.685.685,0,0,1,.452.274.672.672,0,0,1,.685.439,10.649,10.649,0,0,1,.576,1.59.754.754,0,0,1,.329-.247.685.685,0,0,1,.822.315,13.061,13.061,0,0,1,1.37,5.578.658.658,0,0,1,.466-.356.7.7,0,0,1,.754.384c.343.726,1.261,3.454,1.439,4.111a4.074,4.074,0,0,0,.3.918,24.436,24.436,0,0,1,1.562,11.307,10.964,10.964,0,0,1-.534,2.124A6.51,6.51,0,0,1,86,39.9c2.659-.26,6.852.425,8.73,1.8a.7.7,0,0,1,.274.589.671.671,0,0,1-.343.548c-3.783,2.22-6.1,6.852-8.566,11.677-.439.877-.877,1.768-1.37,2.645a4.961,4.961,0,0,1,1.37.548.685.685,0,0,1,.274.726.7.7,0,0,1-.589.521c-.863.1-1.987,2.056-3.18,4.111-3.111,5.468-7.716,13.527-18.378,10.95a.726.726,0,0,1-.384-.247l-.548.466.672.069c8.072,1,14.294,3.358,16.651,6.318A25.519,25.519,0,0,1,83.724,86.2c.082.164.164.343.233.521a6,6,0,0,1,2.385,1.7,4.194,4.194,0,0,1,.767,4.111A.7.7,0,0,1,86.6,93a.672.672,0,0,1-.658-.219,19.282,19.282,0,0,1-2.96-4.879,7.4,7.4,0,0,0-3.07-.329,29.394,29.394,0,0,0-3.508.836c-5.1,1.37-13.7,3.714-21.3,1.37-6.852-2.056-9.525-6.852-11.444-10.416a20.557,20.557,0,0,0-1.631-2.6l-.082-.137a16.35,16.35,0,0,0-3.495-3.371c-3.042-.617-5.139-1.6-5.482-2.385a.946.946,0,0,1,.329-1.275,1.919,1.919,0,0,1,1.631-.123,15.459,15.459,0,0,1,4.111,2.508,29.561,29.561,0,0,0,16.1-1.508,23.559,23.559,0,0,0,4.386-2.385,16.529,16.529,0,0,0,2.741-2.357h-.6c-1.85,0-3.44-.1-4.016-.082s-1.288,0-1.946,0c-.946,0-1.919,0-2.878.082l-.452.617c-1.809,2.193-4.715,2.947-5.783,2.494a.932.932,0,0,1-.6-.932c.123-1.179,2.741-2.823,3.385-3a13.841,13.841,0,0,1,2.7-.48A16.747,16.747,0,0,0,54.327,56.2c-1.069.384-2.083.658-3.07.932a17.446,17.446,0,0,0-5.482,2.22,8.031,8.031,0,0,0-1.042.877c-1.124,3.508-3,6.7-5.18,8.127a.726.726,0,0,1-.562.082.672.672,0,0,1-.425-.37c-.987-2.111,2.549-6.387,4.893-8.593a17.2,17.2,0,0,0,.754-7.894,15.8,15.8,0,0,0-6.524,4l-.288.6c-.192.4-4.632,9.593-6.757,9.593h0a.685.685,0,0,1-.534-.315.726.726,0,0,1,0-.63,32.467,32.467,0,0,1,6.414-10,11.581,11.581,0,0,0,1.069-4.4,10.621,10.621,0,0,0-1.124-4.276c-.274-.658-.534-1.37-.754-2l-1.37.562a15.5,15.5,0,0,0-4,1.891,17.816,17.816,0,0,1,.082,4.934s-.987,4.824-2.248,4.728c-.178,0-.726-.123-.7-.973a9.5,9.5,0,0,0-.288-2.028c-.425-2.015-.946-4.509,1.645-7.14a46.884,46.884,0,0,0-3.413-10.361c-.247-.534-.534-1.042-.822-1.535.534,1.946,1.3,4.207,2.344,6.935a.672.672,0,0,1-.288.836.7.7,0,0,1-.877-.151c-3.125-3.769-4.427-7.579-3.851-11.4l-.164-.219c-.548-.726-1.11-1.466-1.645-2.234-.11.589-.247,1.179-.411,1.754a42.2,42.2,0,0,1-.74,8.771,21.736,21.736,0,0,0,1.521,12.7l.959,1.014c.3.3.6.6.9.932l1.11,1.247c.548.63,1.124,1.288,1.727,1.878,1.37,1.37,3.55,4.646,2.741,8.1a.863.863,0,0,1-.164.315.726.726,0,0,1-.658.206.644.644,0,0,1-.507-.425,29.808,29.808,0,0,0-3.3-5.633A46.008,46.008,0,0,1,19.311,52a10.635,10.635,0,0,1-2.316-3.7c-1.768-5.071-.767-9.895.192-14.568.192-.959.48-1.919.74-2.851.123-.411.247-.836.356-1.261a14.993,14.993,0,0,0-.466-3.33c-1.864-6.3-7.332-10.553-11.594-13.28.672,1.3,1.138,2.426,1.275,2.741,1.466,4.016.439,7.524-.644,11.238-.206.713-.425,1.37-.617,2.152C5.071,33.53,6.5,40.971,8.553,44.713c.507.918.973,1.85,1.37,2.741,2.741,5.359,5.3,10.4,16.72,18.666a5.66,5.66,0,0,1,2.535,4.235c.164,2.357-1.192,4.947-3.084,7.442l1.37-.589a.713.713,0,0,1,.918.343.685.685,0,0,1-.343.9c-.987.452-2.015.863-3.015,1.275l-.754.3a67.229,67.229,0,0,1-4.934,4.947c-1.247,1.206-2.316,2.248-2.905,2.96s-1.083,1.37-1.6,2.056a11.265,11.265,0,0,0,.151,1.138,4.48,4.48,0,0,0,.219,1.014,7.113,7.113,0,0,1,.247,3.522c-.85,3.289-3.878,3.837-6.647,4.249q-1.233,2.508-2.261,5.18a69.511,69.511,0,0,0-2.933,9.511c-.219.891-.411,1.754-.589,2.59v1.727a78.759,78.759,0,0,0,.274,8.017,138.3,138.3,0,0,0,5.482,29.205A119.4,119.4,0,0,0,38.923,207.02a112.38,112.38,0,0,0,77.611,31.192,105.528,105.528,0,0,0,16.747-1.371,113.23,113.23,0,0,0,80.544-57.561,114.463,114.463,0,0,0,3.056-99.059,115.272,115.272,0,0,0-59.452-57.561s-5.838-2.344-7.072-2.741c-13.321-4.564-26.039-5.77-37.127-3.659l-.9.932a25.628,25.628,0,0,1-3.166,2.919A12.65,12.65,0,0,1,98.4,21.661a6.852,6.852,0,0,1-3.988.548,4.111,4.111,0,0,1-3.015-3.1,2.659,2.659,0,0,1,.946-2.741.685.685,0,0,1,.973.164,10.306,10.306,0,0,0,5.03,3.728c.521-.233,1.042-.493,1.549-.767l.329-.164a47.734,47.734,0,0,1,12.458-4.249,12.691,12.691,0,0,1,3.55-2.741A15.665,15.665,0,0,1,124,11.465a110.133,110.133,0,0,1,31.521,6.852l2.453.946c29.013,11.827,52.394,34.482,64.139,62.166A118.479,118.479,0,0,1,197.2,208.514a116.492,116.492,0,0,1-60.014,31,121.21,121.21,0,0,1-22.5,2.111M1.81,124.722a46.09,46.09,0,0,0-.123,5.921,107.31,107.31,0,0,0,1.768,15.541,116.34,116.34,0,0,0,9.854,29.644,117.863,117.863,0,0,0,40.731,46.734A105.914,105.914,0,0,0,70.485,231.5,117.054,117.054,0,0,0,196.2,207.637,117.109,117.109,0,0,0,220.869,82.073c-11.608-27.41-34.715-49.749-63.385-61.439l-2.439-.946a108.749,108.749,0,0,0-31.138-6.8,14.541,14.541,0,0,0-7.1.754,8.224,8.224,0,0,0-1.521.918c10.758-1.617,22.956-.26,35.633,4.111,1.275.425,6.853,2.741,7.154,2.741a116.615,116.615,0,0,1,60.178,58.273,115.848,115.848,0,0,1-3.084,100.279,114.669,114.669,0,0,1-81.544,58.342,113.559,113.559,0,0,1-95.537-30.247A120.932,120.932,0,0,1,7.511,156.614a139.353,139.353,0,0,1-5.551-29.52c-.069-.809-.11-1.617-.151-2.44m5.345-24.436a9.319,9.319,0,0,0-1.919.507c-3.563,1.453-3.056,5.77-2.6,9.593.069.63.137,1.247.192,1.823a68.924,68.924,0,0,1,2.439-7.469c.589-1.508,1.22-2.988,1.891-4.427m6.551-8.579a60.506,60.506,0,0,0-4.111,6.852c2.152-.37,4-.959,4.55-3.084A6,6,0,0,0,13.9,92.57a5.02,5.02,0,0,0-.192-.85m71.416-2.631c.219.4.452.795.7,1.165a2.974,2.974,0,0,0-.562-1.014.712.712,0,0,0-.137-.151M43.171,75.919a24.039,24.039,0,0,1,1.672,2.741c1.9,3.508,4.276,7.867,10.621,9.758,7.277,2.179,15.6-.082,20.557-1.37a30.152,30.152,0,0,1,3.728-.877,8.825,8.825,0,0,1,2.481.1,22.833,22.833,0,0,0-2.741-4.742c-2.467-3.18-10.1-5.413-17.816-6.14a19.8,19.8,0,0,1-5.934,2l-2.056.48c-5.825,1.453-8.963-.726-9.086-.822a.672.672,0,0,1-.288-.617.7.7,0,0,1,.4-.562c3.618-1.7,9.8-2.371,16.569-1.85a12.638,12.638,0,0,0,2.069-1.6,41.115,41.115,0,0,0,4.276-4.92l1.37-1.782h-4.92A17.446,17.446,0,0,1,60.3,69.162a25.011,25.011,0,0,1-4.632,2.522,31.165,31.165,0,0,1-14.623,1.891,13.075,13.075,0,0,1,2.165,2.344m-22.2,5.564a17.3,17.3,0,0,0-3.646,2.4,7.592,7.592,0,0,0-2.289,3.577l.274-.329a42.2,42.2,0,0,1,3.015-3.084c.809-.781,1.713-1.645,2.618-2.563m25.669-4.906a11.964,11.964,0,0,0,6.619,0c.74-.178,1.37-.343,2.083-.48,1.22-.288,2.289-.521,3.275-.85a35.071,35.071,0,0,0-11.978,1.37m33.33-11.759a23.641,23.641,0,0,1-11.745,8.333c5.893-.1,9.265-4.29,11.745-8.333m-8.716.576a23.175,23.175,0,0,0-2.549,2.96,51.667,51.667,0,0,1-3.495,4.111c9.333-1.878,13.965-8.086,17.46-14.39a37.92,37.92,0,0,0-6.112-.356l-.206.11a11.937,11.937,0,0,1-4.111,1.508c-.425,0-1.37.192-1.754-.507-.192-.411,0-.85.452-1.37.767-.726,2.823-1.083,5.208-1.151a32.756,32.756,0,0,0,5.715-3.673,16.569,16.569,0,0,0,3.166-4.3v-.123a43.857,43.857,0,0,1-4.7.343,39.014,39.014,0,0,0-4.427.343l-.795.151a15.843,15.843,0,0,1-7.8,5.482c-1,.137-1.37-.26-1.549-.6-.247-.548,0-1.233.754-1.85a19.529,19.529,0,0,1,7.894-4.139h0A16.254,16.254,0,0,0,77.269,35.64a57.1,57.1,0,0,0-10.114,5.482,24.958,24.958,0,0,1-3.015,4.111.8.8,0,0,1-.206.151c-.26.137-1.055.548-1.48-.082-.767-1.11,2.631-4.207,2.741-4.344a9.044,9.044,0,0,1,.85-.726,35.742,35.742,0,0,0,3.289-9.169l-.343.192a67.99,67.99,0,0,0-10.964,6.99,16.2,16.2,0,0,1-1.521,4.029s-1.686,3.084-2.8,2.96a.85.85,0,0,1-.7-.713c-.452-2.289,1.192-4.687,3.851-7a42.089,42.089,0,0,0,.7-7.222,49.225,49.225,0,0,1,.548-6.455,20.105,20.105,0,0,0-6.291,2.4,48.173,48.173,0,0,1-1.727,5.167,2.762,2.762,0,0,1-.206.507c-.959,2.412-1.754,3.961-2.741,4.276a1.233,1.233,0,0,1-1.083-.178.685.685,0,0,1-.3-.658c0-.26.069-.548.1-.877a10.963,10.963,0,0,1,4.85-9.1c.139-.453.276-.906.4-1.372.973-3.289,2.015-6.852,3.084-9.593-4.111,1.261-7.4,3.18-8.689,7.743a.685.685,0,0,1-.85.466.672.672,0,0,1-.466-.836c1.576-5.605,5.783-7.647,10.69-9l.274-.548a14.746,14.746,0,0,0-11.074,4.92c-.822,2.741-1.823,5.263-2.741,5.619a.7.7,0,0,1-.9-.411c-.466-1.37.26-3.33,1.932-5.386.137-.178.288-.356.439-.521a56.025,56.025,0,0,0,1.549-5.989,8.415,8.415,0,0,0,.082-1.3,17.282,17.282,0,0,1-5.646,5.619c-.274,1.083-.576,2.069-.809,2.892s-.356,1.179-.452,1.59a27.012,27.012,0,0,1-2.3,5.688,17.734,17.734,0,0,0-2.33,7.346,2.234,2.234,0,0,1,.233-.274,62.729,62.729,0,0,0,5.8-7.442l.713-1.014a.713.713,0,0,1,.644-.288.685.685,0,0,1,.562.452,24.493,24.493,0,0,1,.493,2.577c.164,1,.343,2.138.466,2.563a66.251,66.251,0,0,1,1.124,10.4,20.42,20.42,0,0,1,9.237-2.261.726.726,0,0,1,.493.3.713.713,0,0,1,.082.576c0,.206-.233,1.192-.4,2.152a54.217,54.217,0,0,1-1.124,5.482,10.584,10.584,0,0,0-.288,1.042l-.206.863c4.111-.932,10.046-1.453,12.8-.781a.685.685,0,0,1,.452.37c1.37,2.741-.466,7.757-2.59,11.4h.37c.493-.069.973-.137,1.453-.233s.959-.206,1.453-.288a15.226,15.226,0,0,0,3.687-1.014.685.685,0,0,1,.809.151.7.7,0,0,1,0,.822l-1.055,1.8q-1.375,2.457-2.988,4.769a44.167,44.167,0,0,0,5.3,0,.685.685,0,0,1,.781,1.124m-20.3.507a11.321,11.321,0,0,0-1.179.274,7.442,7.442,0,0,0-1.946,1.37,6.277,6.277,0,0,0,3.125-1.6m-8.949-2.741a17.35,17.35,0,0,0-1.836,2.741,14.239,14.239,0,0,0,1.836-2.741m28.355,1.069h0M58.1,64.229c.767,0,2.083,0,3.673.082h1.658a45.32,45.32,0,0,0,3.55-5.482,1.37,1.37,0,0,0,.11-.192c-.726.192-1.453.329-2.179.466l-1.37.274c-.521.123-1.042.192-1.549.26l-1.083.164-.48.11a9.21,9.21,0,0,1-2.741,2.878.8.8,0,0,1-.795-.11c-.534-.452-.3-1.727-.3-1.741a2.851,2.851,0,0,1,1.288-1.453,6.5,6.5,0,0,1,1.672-.754,28.385,28.385,0,0,0,1.782-3.262c1.494-3.221,2.042-6.044,1.508-7.647-3.289-.644-9.278.26-12.718,1.11a3,3,0,0,1-1.042,1.179,2.467,2.467,0,0,1-1.919.219c-.973-.26-.822-1-.795-1.083.123-.521,1.206-1.042,2.741-1.494a15.433,15.433,0,0,0,.439-1.59,12.236,12.236,0,0,1,.315-1.192c.288-.795.754-3.44,1.069-5.194l.315-1.4A20.091,20.091,0,0,0,42.705,41a6.455,6.455,0,0,1-1.96,3.193,1.617,1.617,0,0,1-1.9.384.822.822,0,0,1-.3-1.028,8.127,8.127,0,0,1,2.919-3.371c0-.192,0-.4,0-.63A62.563,62.563,0,0,0,40.4,29.267c-.137-.507-.315-1.576-.507-2.741a6.629,6.629,0,0,0-.137-.863,60.466,60.466,0,0,1-5.729,7.3A6.442,6.442,0,0,0,32.892,35a23.437,23.437,0,0,0,.37,2.494s.767,4.111-.534,5.482a1.37,1.37,0,0,1-1.275.356,1.206,1.206,0,0,1-.9-.973c-.439-1.37,0-4.824.959-7.5a17.666,17.666,0,0,1,2.481-10.484,26.039,26.039,0,0,0,2.193-5.4c.11-.439.274-1,.466-1.658s.3-1,.466-1.59c-7.524,4.249-12.047,8.7-13.472,13.28a9.661,9.661,0,0,0,.164,1.727,28.78,28.78,0,0,1,2.837,4.509,46.6,46.6,0,0,1,3.371,9.991,19.325,19.325,0,0,1,3.8-1.8c.74-.288,1.37-.562,2.042-.863a.74.74,0,0,1,.589,0,.672.672,0,0,1,.37.466,21.82,21.82,0,0,0,.918,2.59,11.978,11.978,0,0,1,1.233,4.838,11.416,11.416,0,0,1-.356,2.522A16.2,16.2,0,0,1,44.542,50.1a.7.7,0,0,1,.822.48,15.6,15.6,0,0,1,0,7.373,19.927,19.927,0,0,1,5.605-2.206A29.206,29.206,0,0,0,54.7,54.553a.658.658,0,0,1,.576,0,.672.672,0,0,1,.356.452c.534,2.3-.343,6.359-1.836,9.278h4.358M23.3,56.307c.4.617.795,1.206,1.192,1.8.713,1.1,1.37,2.152,2.028,3.193a9.169,9.169,0,0,0-2.289-4.016c-.315-.315-.63-.644-.932-.973m60.8,2.1h0m-5.126-1.974a35.385,35.385,0,0,1,4.372.466c.535-.987,1.028-1.987,1.521-2.96,2.344-4.646,4.577-9.045,8.127-11.608A15.829,15.829,0,0,0,86.136,41.3a5.085,5.085,0,0,0-2.96,1.138,7.167,7.167,0,0,1-1.014.644,5.783,5.783,0,0,1-2.892,2.892c-.959.288-1.37,0-1.37-.425-.37-1.083,2.631-3.084,3.33-3.508a11.9,11.9,0,0,0,1.206-3.563A23.038,23.038,0,0,0,80.86,27.8c-.151-.439-.274-.781-.343-1.028s-.288-.959-.534-1.686a12.963,12.963,0,0,1-1.042,2.152,35.738,35.738,0,0,1-.726,4.111.681.681,0,0,1-1.343-.151,9.922,9.922,0,0,1,.315-3.618l.11-.192.315-.521a27.258,27.258,0,0,0,.164-5.222c-.11.411-.233.822-.384,1.233a14.462,14.462,0,0,1-.795,1.782,8.456,8.456,0,0,1-1.96,4.619.7.7,0,0,1-.644.164.685.685,0,0,1-.48-.466c-.233-.74.356-1.96,1.37-4.029.123-.233.247-.48.356-.713.206-1.151.3-2.275.37-3.042v-.37a11.979,11.979,0,0,0-.219-3.563c-.274.411-.589.863-.959,1.37l-.137.192a34.524,34.524,0,0,0-2.056,3.234c-1.371,2.412-6.482,8.47-8.8,9.813a.685.685,0,0,1-.9-.178.672.672,0,0,1,.1-.9,67.962,67.962,0,0,0,7.442-10.224c.192-.343.411-.877.658-1.439a18.927,18.927,0,0,1,1.521-3.084c-.288.1-.576.219-.891.343l-.1.069a30.425,30.425,0,0,0-6.222,3.413l-.411.26a11.95,11.95,0,0,0-1.22.822,4.59,4.59,0,0,0-.288.493,13.91,13.91,0,0,0-.672,1.37,13.9,13.9,0,0,1-.822,1.7.685.685,0,0,1-.74.329.7.7,0,0,1-.534-.617,4.947,4.947,0,0,1,2.015-4.262,10.964,10.964,0,0,1,2.042-2.138c.4-.315.809-.617,1.22-.918a19.078,19.078,0,0,0,1.686-1.37,5.893,5.893,0,0,1,.863-.6l-1.028.151a25.642,25.642,0,0,0-5.838,1.8c-.658.329-1.275.713-1.932,1.124a16.172,16.172,0,0,1-3.193,1.713.658.658,0,0,1-.781-.233.7.7,0,0,1,0-.836A18.762,18.762,0,0,1,60.3,14.37a12.334,12.334,0,0,1,3.577-1.22c.26,0,1-.164,1.891-.274a21.284,21.284,0,0,0-6.852.3c-1.1.247-2.165.507-3.193.767A106.9,106.9,0,0,0,52.3,24.361a25.3,25.3,0,0,1,6.469-2.069.713.713,0,0,1,.63.192.74.74,0,0,1,.178.63,42.6,42.6,0,0,0-.644,7.236,55.028,55.028,0,0,1-.452,5.8A78.24,78.24,0,0,1,68.4,30.035c.672-.356,1.37-.74,1.562-.863a.672.672,0,0,1,.685-.206.685.685,0,0,1,.48.836h0l-.219.863a51.706,51.706,0,0,1-2.385,7.963,87.4,87.4,0,0,1,9.059-4.619.713.713,0,0,1,.6,0,.726.726,0,0,1,.356.493A18.008,18.008,0,0,1,76.392,47.55c1.288-.164,2.741-.219,4.111-.274a28,28,0,0,0,5.838-.6.672.672,0,0,1,.726.247.685.685,0,0,1,0,.767c-.288.466-.562.959-.85,1.439a17.473,17.473,0,0,1-3.44,4.66,25.189,25.189,0,0,1-3.851,2.645m-6.291-6.414a19.831,19.831,0,0,0-5.043,3.221,15.075,15.075,0,0,0,5.043-3.221M29.124,47.975a5.674,5.674,0,0,0-.589,5.085v.192a11.992,11.992,0,0,0,.493-1.8,18.049,18.049,0,0,0,0-3.481m26.9-7.73a6.743,6.743,0,0,0-1.645,2.837,12.085,12.085,0,0,0,.973-1.439c.26-.466.466-.932.672-1.37m-23.9-1.891a11.251,11.251,0,0,0-.192,3.536,7.634,7.634,0,0,0,.192-3.536M49.955,27.774a9.854,9.854,0,0,0-2.741,6.647,16.775,16.775,0,0,0,1.37-2.96c.1-.247.178-.439.233-.562a30.33,30.33,0,0,0,1.1-3.125M69.9,29.432h0M37.388,2.584c-.274,3.508-2.741,6.236-5.372,9.086a31.933,31.933,0,0,0-4.975,6.537l-.206.37a31.1,31.1,0,0,0-2.741,6.441q3.741-5.825,13.582-11.142c.918-3.7,1.59-8.374-.219-11.293M92.824,17.975a1.576,1.576,0,0,0,0,.836,2.741,2.741,0,0,0,1.96,2.056,4.112,4.112,0,0,0,1.7,0,11.745,11.745,0,0,1-3.646-2.878m7.62,2.741h0a10.717,10.717,0,0,0,8.086-1.713,19.737,19.737,0,0,0,2.467-2.22,46.063,46.063,0,0,0-10.087,3.687l-.329.164-.151.082M74.761,15.645C73.623,15.8,72.65,18.1,72.02,19.66l-.247.576c.48-.795.959-1.508,1.494-2.248l.137-.206a13.486,13.486,0,0,0,1.371-2.138m-12.143-.754a10,10,0,0,0-1.124.425c.37-.151.74-.3,1.124-.425" transform="translate(0.002 0.02)" fill="#DDC28E"/>
      <path id="Контур_2-2" data-name="Контур 2" d="M32.334,95.543h-.178a.644.644,0,0,1,.233-.1,7.1,7.1,0,0,0,5.276-7.277A6.619,6.619,0,0,0,33.7,82.428c-1.836-.918-5.7-.713-8.538-.562H23.179a24.353,24.353,0,0,1-2.577-.082H19.328a.617.617,0,0,0-.617.356.726.726,0,0,0,.274.781,2.919,2.919,0,0,1,.946,2.371c0,.315,0,1.946,0,4.235V106.74h0c.123,5.016-.384,6.359-1.192,6.852-.4.288-.452.6-.37.822s.384.411.9.329a26.046,26.046,0,0,1,3.138-.123h2.823c1.645,0,3.508.1,4.482.1a11.9,11.9,0,0,0,9.415-4.413,9.84,9.84,0,0,0,2.042-6.085c0-1.9-.63-8.223-8.8-8.675m-5.482,16.83c-1.233-.343-3.111-1.37-3.084-1.987V84.346c0-.274.946-.74,4.482-.74a5.071,5.071,0,0,1,5.331,5.345c0,4.016-1.8,5.4-4.865,6.441a.781.781,0,0,0-.576.795.754.754,0,0,0,.672.713l.562.082a9.429,9.429,0,0,1,4.111,1.275,6.743,6.743,0,0,1,3.358,6.236c-.123,3.988-1.37,6.386-4.111,7.579a9.059,9.059,0,0,1-6.03.37" transform="translate(6.796 30.309)" fill="#DDC28E"/>
      <path id="Контур_3-2" data-name="Контур 3" d="M161.062,113.587c-.48-.164-1.37-1.288-2.439-3.947-.617-1.672-10.566-27.52-10.745-27.931s-.384-.48-.548-.48-.466.206-.644.63-9.826,25.71-10.745,27.862l-.1.274a7.784,7.784,0,0,1-2.193,3.659.754.754,0,0,0-.356.836.726.726,0,0,0,.795.4,14.212,14.212,0,0,1,3.837,0h.178a.63.63,0,0,0,.589-.329.891.891,0,0,0-.178-1.014,2.179,2.179,0,0,1-.151-2.3c.192-.466,3.1-8.456,3.248-8.922a.37.37,0,0,1,.274-.274h9.744c.329,0,.343,0,.411.206l.082.192c.452.959,2.851,7.634,3.33,9.47.206.822.165,1.371-.123,1.617a1.014,1.014,0,0,0-.315,1.069c0,.123.219.329.7.3s1.741-.123,2.535-.123a9.914,9.914,0,0,1,1.713.082,4.539,4.539,0,0,0,1.069,0c.562,0,.7-.3.726-.452a1.092,1.092,0,0,0-.63-.85M151.3,99.773a.439.439,0,0,1-.206,0h-8.607a2.418,2.418,0,0,1,.082-.233v-.164c.493-1.165,3.933-10.841,4.112-11.279a1.111,1.111,0,0,1,.11-.247l.069.178c.137.343.9,2.426,1.713,4.646,1.466,4.029,2.439,6.674,2.508,6.852a1.479,1.479,0,0,1,.082.247" transform="translate(49.379 30.123)" fill="#DDC28E"/>
      <path id="Контур_4-2" data-name="Контур 4" d="M68.031,113.619c-.672-.521-1.1-1.85-1.1-6.852V85.3c.123-1.617.576-2.165.9-2.439a.685.685,0,0,0,.247-.767.589.589,0,0,0-.589-.356,8.757,8.757,0,0,0-.987.069c-.356,0-.754.082-1.233.1a5.479,5.479,0,0,1-1.37-.1,3.82,3.82,0,0,0-1-.069.63.63,0,0,0-.617.37.713.713,0,0,0,.247.767,2.837,2.837,0,0,1,.973,2.412V106.7c0,1.836-3.248,4.111-4.906,4.742a10.32,10.32,0,0,1-9.443-.521c-2.124-1.48-3.262-4.111-3.262-7.428V85.3a3.289,3.289,0,0,1,.877-2.439.7.7,0,0,0,.233-.767.589.589,0,0,0-.576-.356,6.3,6.3,0,0,0-1.055.069,10.762,10.762,0,0,1-1.37.1,5.576,5.576,0,0,1-1.37-.1,4.4,4.4,0,0,0-1.069-.069.63.63,0,0,0-.63.4.658.658,0,0,0,.288.726,3.275,3.275,0,0,1,.918,2.426v17.816c0,4.536,1.042,7.661,3.207,9.593a10.7,10.7,0,0,0,7.017,2.289,20.449,20.449,0,0,0,4.893-.617,17.638,17.638,0,0,0,5.879-2.741c.123-.123.206-.151.192-.164a.521.521,0,0,1,0,.11c0,1.713.206,2.741.63,3.056a.685.685,0,0,0,.521.151h1.384a7.192,7.192,0,0,1,1.069,0h.576c.452,0,.767-.11.863-.384s.1-.425-.356-.754" transform="translate(15.161 30.311)" fill="#DDC28E"/>
      <path id="Контур_5-2" data-name="Контур 5" d="M95.334,113.619c-.726-.534-1.1-1.768-1.1-6.99V85.263c.123-1.562.548-2.1.918-2.4a.713.713,0,0,0,.288-.767.617.617,0,0,0-.589-.356H89.962a.589.589,0,0,0-.576.356.713.713,0,0,0,.247.781c.247.192.822.672.946,2.371v9.374c0,.26-.247.521-.767.521H73.982c-.535,0-.767-.26-.767-.521v-9.36c.123-1.713.685-2.193.946-2.4a.713.713,0,0,0,.247-.767.617.617,0,0,0-.589-.356,6.509,6.509,0,0,0-1.1.069,9.915,9.915,0,0,1-1.37.1,5.382,5.382,0,0,1-1.371-.1,4.658,4.658,0,0,0-1.11-.069.589.589,0,0,0-.589.356.713.713,0,0,0,.247.781c.247.192.822.658.946,2.371v21.366c0,5.153-.452,6.482-1.179,6.99-.4.288-.439.6-.343.822a.713.713,0,0,0,.85.315l1.371-.082h3.44a.754.754,0,0,0,.891-.329c.082-.219,0-.548-.411-.809-.74-.548-1.165-1.878-1.165-6.976V97.666c0-.206.192-.3.452-.3H89.825c.26,0,.411.1.452.26v8.908c.123,5.482-.466,6.565-1.138,6.99-.4.288-.439.6-.343.822a.617.617,0,0,0,.617.343h.233l1.439-.082h2l1.371.082c.644.11.836-.178.891-.315a.821.821,0,0,0-.37-.822" transform="translate(25.162 30.311)" fill="#DDC28E"/>
      <path id="Контур_6-2" data-name="Контур 6" d="M121.222,113.587c-.48-.164-1.37-1.288-2.439-3.947-.63-1.686-10.566-27.533-10.745-27.931s-.4-.48-.548-.48a.947.947,0,0,0-.644.63c-.178.425-9.826,25.7-10.745,27.835l-.1.274a7.784,7.784,0,0,1-2.193,3.659.754.754,0,0,0-.356.836.726.726,0,0,0,.795.4,14.213,14.213,0,0,1,3.837,0h.233a.63.63,0,0,0,.589-.329.891.891,0,0,0-.178-1.014,2.179,2.179,0,0,1-.151-2.3c.178-.439,3.1-8.442,3.248-8.922a.37.37,0,0,1,.274-.274h9.662c.343,0,.356,0,.425.206l.082.192c.452.959,2.851,7.634,3.33,9.47.206.822.164,1.37-.123,1.617a1.014,1.014,0,0,0-.315,1.069c0,.123.219.329.7.3s1.741-.123,2.535-.123a9.66,9.66,0,0,1,1.7.082,4.672,4.672,0,0,0,1.083,0c.562,0,.7-.3.726-.452a1.092,1.092,0,0,0-.63-.85m-9.826-13.787a.438.438,0,0,1-.206,0h-8.5a2.41,2.41,0,0,1,.082-.233v-.164c.521-1.22,3.933-10.813,4.111-11.279a1.11,1.11,0,0,1,.11-.247l.069.178c.137.329.891,2.426,1.7,4.632,1.48,4.029,2.453,6.688,2.535,6.852a.439.439,0,0,1,.069.247" transform="translate(34.619 30.123)" fill="#DDC28E"/>
      <path id="Контур_7-2" data-name="Контур 7" d="M136.23,109.492a.918.918,0,0,0-1.042.329,8.991,8.991,0,0,1-3.961,2.289,13.869,13.869,0,0,1-6.017.3,2.028,2.028,0,0,1-1.823-1.782c-.082-.973-.123-2.316-.123-3.974V85.3a2.7,2.7,0,0,1,.946-2.4.713.713,0,0,0,.247-.767.617.617,0,0,0-.589-.356h-4.879a.589.589,0,0,0-.589.356.74.74,0,0,0,.247.781c.343.274.9.74.9,2.371v22.476c0,2.028.123,4.824-1.11,5.852a.713.713,0,0,0-.356.781.754.754,0,0,0,.754.4H126.5c1.37,0,4.482,0,6.524.1H134.8a1.083,1.083,0,0,0,1.261-.987c.151-.9.4-2.563.439-3.426a.685.685,0,0,0-.329-.795" transform="translate(43.745 30.326)" fill="#DDC28E"/>
      <path id="Контур_8-2" data-name="Контур 8" d="M46.221,123.961c0,1.055-.891,1.686-2.33,1.686H40.725v-7.538H43.6c1.37,0,2.083.617,2.083,1.549h0c0,1.1-.891,1.686-2.165,1.686H42.3v.946h1.37c1.658,0,2.522.589,2.522,1.617Zm1.069,0h0c0-1.371-.9-1.946-2.015-2.289a2.275,2.275,0,0,0,1.494-2.179h0a2.138,2.138,0,0,0-.6-1.521,3.536,3.536,0,0,0-2.481-.781H39.67v9.456h4.194c2.069,0,3.426-.959,3.426-2.577m11.882-2.124a3.714,3.714,0,0,1-3.7,3.878,3.769,3.769,0,0,1-3.728-3.906h0a3.714,3.714,0,0,1,7.428,0Zm1.11,0h0a4.824,4.824,0,1,0-9.593,0h0a4.742,4.742,0,0,0,4.8,4.865,4.8,4.8,0,0,0,4.838-4.893m11.622.685v-5.482H70.876V122.6c0,2.069-1.11,3.125-2.851,3.125a2.741,2.741,0,0,1-2.892-3.193v-5.482H64.078v5.482a3.934,3.934,0,0,0,7.867-.082m7.743-4.427h3.18v-.836H75.4v.987h3.166v8.47h1.083Zm6.852,8.47H87.6v-9.306H86.541Zm9.881-.822a3.755,3.755,0,0,1-3.714-3.906h0a3.714,3.714,0,0,1,3.7-3.879,3.755,3.755,0,0,1,3.714,3.906h0a3.714,3.714,0,0,1-3.7,3.878m3.824,2.179h1.59l-2.344-2.22a4.961,4.961,0,0,0,1.741-3.81h0a4.824,4.824,0,1,0-9.593,0h0a4.838,4.838,0,0,0,6.852,4.413Zm12.609-5.4v-5.482h-1.069v5.482c0,2.069-1.1,3.125-2.851,3.125s-2.878-1.151-2.878-3.193V116.9h-1.069v5.482a3.934,3.934,0,0,0,7.867-.082m4.111,4.111h6.852v-.973h-5.7v-3.3h5.167V121.3h-5.167v-3.234h5.77v-.877h-6.852Zm22.942-2.371h0c0-1.453-.973-2.22-3.084-2.741s-2.563-.946-2.563-1.836h0c0-.85.781-1.535,2.015-1.535a4.112,4.112,0,0,1,2.741,1.028l.617-.822a4.934,4.934,0,0,0-3.317-1.151,2.741,2.741,0,0,0-3.111,2.577h0c0,1.549,1,2.248,3.18,2.741s2.453.918,2.453,1.8h0c0,.918-.836,1.6-2.1,1.6a4.523,4.523,0,0,1-3.248-1.37l-.658.781a5.482,5.482,0,0,0,3.865,1.521c1.864,0,3.221-1.055,3.221-2.741M150.885,120h0c0-1.864-1.37-3-3.536-3h-3.618v9.456H144.8v-8.47h2.385c1.521,0,2.535.7,2.535,2.056h0c0,1.247-1.028,2.083-2.59,2.083h-.754v.973h.713c2.015,0,3.714-1.055,3.714-3.1m8.771,2.96h-4.331l2.152-4.81Zm2.741,3.467-4.3-9.593h-1l-4.3,9.593h1.1l1.11-2.494h5.153l1.1,2.494Z" transform="translate(14.7 43.184)" fill="#DDC28E"/>
    </g>
  </g>
</svg>
