<svg xmlns="http://www.w3.org/2000/svg" width="2555.329" height="1128.638" viewBox="0 0 2555.329 1128.638">
  <g id="Сгруппировать_569" data-name="Сгруппировать 569" transform="translate(294.989 -2010.334)">
    <g id="Layer_2" data-name="Layer 2" transform="matrix(0.105, -0.995, 0.995, 0.105, 1353.066, 3055.379)" opacity="0.11">
      <g id="Layer_1" data-name="Layer 1" transform="translate(0 0)">
        <path id="Контур_171" data-name="Контур 171" d="M1069.64,1.428c4.49,4.772-4.567,7.954-7.7,9.314-8.9,3.772-17.6,8.134-26.4,12.188-18.885,8.724-37.744,17.627-56.833,25.89A593.27,593.27,0,0,1,861.729,85.87,711.674,711.674,0,0,1,739.209,98.7c-20.912.564-41.823.564-62.709.385h-7.544a15.728,15.728,0,0,0-6,.385c-4.7,1.719-9.263,4.054-13.83,6.132q-14.446,6.492-28.635,13.6a1189.886,1189.886,0,0,0-109.87,62.915C474.9,204.9,440.133,229.045,405.417,253.4s-69.74,49.188-104.045,74.59S233.608,379.3,200.867,406.5c-16.242,13.471-32.817,26.659-47.494,41.875s-27.557,32.048-42.542,46.955-30.79,29.148-45.672,44.184S35.78,570.15,22.31,586.572q-4.978,6-9.725,12.188c-1.309,1.693-2.566,3.413-3.823,5.132a11.6,11.6,0,0,1-4.028,4.542A3.438,3.438,0,0,1,.5,607.586c-1.18-1.668,0-3.669.847-5.132,2.566-3.951,5.67-7.7,8.544-11.546a538.07,538.07,0,0,1,41.952-48.443c14.7-15.241,30.046-29.764,45.313-44.415s28.815-30.482,42.978-46.185A482.063,482.063,0,0,1,186.5,408.707q24.324-20.527,49.367-40.284c33.356-26.249,67.354-51.5,101.736-76.232s69.586-49.444,104.636-73.666,70.484-47.443,107-69.021a1027.485,1027.485,0,0,1,111.1-57.142C698.823,75.556,736.823,57.312,775.8,41.43c37.308-15.087,76.1-27.66,116.233-32.535,20.527-2.566,41.054-2.976,61.58-3.643,21.348-.667,42.722-1.206,64.146-2.078,9.853-.436,19.706-1.078,29.559-1.693,4.311-.282,8.621-.385,12.829-.949C1062.943.145,1067.408-.83,1069.64,1.428Zm-47.519,9.314-71.151,2.207c-22.425.693-44.954,1.283-67.2,4.67C839.2,24.392,796.839,40.1,755.682,58.005c-24.4,10.648-48.495,21.964-72.819,32.715,49.033.411,98.272-.385,146.9-7.492a580.157,580.157,0,0,0,140.2-39.258c25.813-10.828,51.06-23.093,76.514-34.716Z" transform="translate(-0.002 190.895)" fill="#ddc28e" fill-rule="evenodd"/>
        <path id="Контур_172" data-name="Контур 172" d="M478.246,159.615c3.951,4.439-3.182,8.313-6.132,10.623-6.877,5.363-13.7,10.828-20.527,16.319a442.8,442.8,0,0,0-40.643,35.588c-12.393,12.829-24.709,25.659-37.692,37.9s-26.428,24.3-40.053,35.922c-27.07,23.093-55.063,45.39-84.288,65.866s-58.219,42.542-86.469,65.019q-23.58,18.808-46.955,37.975c-7.261,5.978-14.395,12.085-21.63,18.115A82.107,82.107,0,0,1,82.9,491.047c-2.951,1.693-7.287,0-6.03-3.977.718.231,1.437-3.746,1.719-4.619.539-1.924,1.155-3.8,1.822-5.7,1.411-4.08,3.028-8.108,4.8-12.085,3.233-7.313,6.953-14.42,10.854-21.4a304.869,304.869,0,0,1,29.61-43.414c22.58-27.737,49.341-51.779,77.669-73.46a1053.385,1053.385,0,0,1,87.855-59.348c30.406-18.731,61.093-37,91.883-55.089q26.249-15.4,52.523-30.79l25.658-15.4c3.207-1.9,6.312-4,9.519-5.9C473.14,158.691,475.937,157.485,478.246,159.615ZM416.922,201.8c-49.11,28.661-98.4,57.167-146.254,87.829-47.494,30.354-94.09,63.89-131.474,106.483a277.336,277.336,0,0,0-50.111,79.362c44.364-36.769,88.984-73.563,135.759-107.227,23.093-16.55,46.185-32.638,68.38-50.265s44.159-36.384,65.3-55.756c11.777-10.828,23.323-21.912,34.459-33.356s22.3-22.785,34.511-33.151Z" transform="translate(394.796 -98.562)" fill="#ddc28e" fill-rule="evenodd"/>
        <path id="Контур_173" data-name="Контур 173" d="M520.926,169.8a3.926,3.926,0,0,1-1.9,6.415,72.509,72.509,0,0,1-11.521,1.95l-25.145,4.311q-25.145,4.208-50.342,8.262c-33.2,5.337-66.507,9.725-99.837,14.215-64.429,8.673-130.859,18.295-195.723,8.673A219.025,219.025,0,0,1,86.4,200.539a147.976,147.976,0,0,1-24.222-12.47C59,186.016,42.394,176.625,51.452,172.212l1.77,3.977c-.847-1.924-2.13-2.694,0-3.874a108.98,108.98,0,0,1,11.007-4.542c7.338-2.8,14.779-5.286,22.3-7.7A430.822,430.822,0,0,1,225.57,141.55c31.945,1.206,63.864,4.593,95.758,6.8,32.535,2.232,65.019,4.208,97.5,7.569,17.961,1.873,35.922,4,53.883,6.286,9.057,1.155,17.961,2.386,27.121,3.644,4.08.564,8.134,1.309,12.213,1.668C514.819,167.8,518.8,167.619,520.926,169.8Zm-28.07,2.9c-28.481-3.9-56.988-7.39-85.6-10.263s-57.4-4.465-86.11-6.44-57.013-4.67-85.571-6.312a414.534,414.534,0,0,0-82.877,3.541,435.4,435.4,0,0,0-91.6,23.426c22.964,16.858,51.317,24.838,79.157,28.815a439.168,439.168,0,0,0,86.033,2.668c29.02-1.591,57.911-4.926,86.726-8.7,29.225-3.849,58.553-7.338,87.7-11.752,16.268-2.438,32.509-5.132,48.751-7.7l24.786-4.054,11.521-1.9,4.439-.8C490.572,173.084,492.419,172.443,492.855,172.7Z" transform="translate(423.781 219.504)" fill="#ddc28e" fill-rule="evenodd"/>
        <path id="Контур_174" data-name="Контур 174" d="M581.593,101.464c2.874,3.644-1.847,7.133-4.182,9.494L565.4,123.043q-12.316,12.5-24.478,25.2c-16.242,16.935-31.637,34.69-46.8,52.6-30.174,35.691-59.015,72.64-85.776,110.922-27.1,38.744-51.317,79.388-77.745,118.594-12.829,19.116-26.274,37.923-40.643,55.936-14.8,18.551-30.508,36.435-46.057,54.37s-30.79,35.614-47.391,52.318c-8.339,8.391-17.243,16.216-25.658,24.5-4.08,4-8.031,8.082-11.8,12.393-1.668,1.95-3.207,4.028-4.926,5.953s-3.823,2.566-5.132,4.542c-1,1.411-2.206,3.156-4.208,2.335a4.567,4.567,0,0,1-2.13-4.028,19.445,19.445,0,0,1,1.565-6.774c.872-2.8,1.822-5.594,2.848-8.339a265.242,265.242,0,0,1,14.189-31.252c10.751-20.527,22.58-40.592,33.048-61.349,21.117-41.8,43.62-82.98,68.508-122.571A961.035,961.035,0,0,1,346.2,295.058c15.4-17.833,31.278-35.178,47.981-51.7a605.971,605.971,0,0,1,52.831-45.8c36.64-28.738,74.025-56.654,111.692-84.058l13.188-9.6C574.562,101.977,578.668,98.051,581.593,101.464Zm-46.185,38.975c-16.216,11.957-32.124,24.324-48.212,36.435s-32.612,24.5-48.418,37.385a686.977,686.977,0,0,0-85.8,85.135,933.773,933.773,0,0,0-73.2,97.272c-22.143,33.69-42.285,68.637-61.144,104.277-9.288,17.55-17.961,35.486-27.326,52.985s-19.86,34.357-28.558,52.19q-3.233,6.543-6.055,13.317c13.394-14.471,28.635-27.1,42.08-41.541s26.941-29.61,40.053-44.723c26.12-30.2,51.83-60.5,74.641-93.346s43.748-67.046,65.686-100.53,45.929-66.4,70.792-98.144,50.445-62.684,77.925-91.935c3.233-3.438,6.466-6.851,9.75-10.263Z" transform="translate(122.359 -100.118)" fill="#ddc28e" fill-rule="evenodd"/>
        <path id="Контур_175" data-name="Контур 175" d="M650.942,118.387c2.976,3.182-.565,6.081-3.49,6.9-4.157,1.18-8.442,2.078-12.624,3.182q-13.855,3.695-27.686,7.287c-18.756,4.824-37.692,8.852-56.449,13.753s-37.359,10.263-56.192,14.933a500.378,500.378,0,0,1-55.346,10.032c-38.488,4.849-77.361,7.159-116.131,9.057s-77.822,3.13-116.746,4.439c-19.321.667-38.642,1.386-57.937,2.309-9.211.436-18.4.847-27.583,1.77-4.567.436-9.134,1-13.676,1.77-2.8.462-6.107,1.591-8.134-1.155a3.72,3.72,0,0,1-.744-3c.231-.975,1.8-3.259,2.566-1.95.539,0,.359-.847.59-.924s1.052-.231,1.54-.385A27.073,27.073,0,0,0,108.032,184c3.951-2.181,8.031-4.157,12.034-6.209q12.829-6.543,25.659-12.829c16.883-8.39,33.895-16.6,51.317-23.683a556.152,556.152,0,0,1,106.893-30.251,651.931,651.931,0,0,1,109.613-10.6c37.462-.539,74.795,2.13,112.077,5.132,38.154,3.156,76.257,6.851,114.36,10.8C642.936,116.616,648.632,116.026,650.942,118.387Zm-24.812,4.105c-34.229-3.49-68.508-6.748-102.788-9.571-33.587-2.745-67.225-5.132-100.941-5.132A638.308,638.308,0,0,0,226.78,138.426c-35.922,11.649-69.278,28.789-103.147,45.441,33.356-2.566,66.917-3.284,100.376-4.362s67.1-2.207,100.633-3.849,66.712-3.618,99.94-7.21c15.677-1.719,31.3-3.746,46.775-6.748,16.267-3.13,32.278-7.313,48.264-11.649,17.961-4.849,35.665-9.725,53.678-13.984s36.23-8.673,54.217-13.445Z" transform="translate(166.986 347.738)" fill="#ddc28e" fill-rule="evenodd"/>
        <path id="Контур_176" data-name="Контур 176" d="M478.209,71.645c3.156,3.926-2.566,9.083-4.772,12.034l-13.779,19.193c-9.391,13.086-18.474,26.326-27.018,40A817.913,817.913,0,0,0,386.3,227.726c-13.881,29.4-26.12,59.579-39.206,89.369s-27.378,58.117-39.514,87.932c-6.825,16.729-13.394,33.587-19.86,50.47-3.1,8.108-6.235,16.216-9.109,24.4-.924,2.566-2,7.133-5.132,7.954a3.951,3.951,0,0,1-4.952-4.208l3.9.359c-.821,0-2.566.359-3.284-.308s0-2.386,0-3.233c.436-4.054.744-8.159,1.155-12.239.847-8.185,1.745-16.344,2.566-24.53,1.719-16.473,3.13-32.971,5.132-49.419a552.042,552.042,0,0,1,18.962-96.117,336.567,336.567,0,0,1,40.489-87.624A453.965,453.965,0,0,1,367.8,170.61c10.674-12.829,21.681-25.479,33.2-37.641A406.825,406.825,0,0,1,441.338,95.2c7.338-5.927,14.831-11.675,22.323-17.4,2.566-2.027,5.132-4.336,7.928-6.184C473.719,70.285,476.233,69.489,478.209,71.645ZM454.655,95.328a396.584,396.584,0,0,0-30.79,26.3c-9.622,9.314-18.885,19.013-27.865,28.943-18.346,20.3-36.512,41.413-51.625,64.275-29.841,45.082-45.775,96.964-54.422,149.949-4.849,29.764-7.39,59.81-10.725,89.805,9.365-24.376,18.782-48.751,29.071-72.768s22.4-47.725,32.946-71.844,20.527-48.11,31.227-71.844S395,191.188,407.854,168.506a811.982,811.982,0,0,1,47.417-73.435Z" transform="translate(-97.221 131.301)" fill="#ddc28e" fill-rule="evenodd"/>
        <path id="Контур_177" data-name="Контур 177" d="M203.174,91.652a250.556,250.556,0,0,1,36.281-14.01,333,333,0,0,1,37.564-9.93,402.274,402.274,0,0,1,78.874-6.774c26.89,0,53.883,1.1,80.722,2.951,27.224,1.873,54.319,5.132,81.492,7.492,13.471,1.257,26.967,2.258,40.489,3.336,6.62.513,13.266,1.206,19.911,1.514,3.695.18,13.265-.616,14.318,4.336s-8.057,6.235-11.367,7.338a164.764,164.764,0,0,1-19.244,4.8c-12.983,2.566-25.966,5.388-39,7.7a986.355,986.355,0,0,1-158.39,17.473,623.315,623.315,0,0,1-80.414-2.951c-26.274-2.822-51.651-8.955-77.386-14.7-2.335-.539-5.542-.872-6.825-3.182a3.977,3.977,0,0,1,1.924-5.594C202.327,92.217,202.533,92.217,203.174,91.652ZM570.4,83.236c-23.811-1.924-47.6-3.592-71.356-5.927-23.375-2.335-46.776-4.619-70.2-6.055s-46.673-2.361-70.022-2.566a423.831,423.831,0,0,0-68.893,4.49,366.476,366.476,0,0,0-73.948,20.706,573.271,573.271,0,0,0,68.046,12.983,588.13,588.13,0,0,0,69.278,3.361A929.538,929.538,0,0,0,492.962,98.092q19.629-3.028,39.207-6.9c12.829-2.566,25.992-4.824,38.77-7.929Z" transform="translate(-34.433 525.294)" fill="#ddc28e" fill-rule="evenodd"/>
        <path id="Контур_178" data-name="Контур 178" d="M546.919,33.375c4.7,5.44-5.978,7.569-9.365,8.6-10.264,3.079-20.322,6.184-30.482,9.314-20.527,6.389-41.208,12.65-61.426,20.065a219.409,219.409,0,0,1-56.731,13.676,215.273,215.273,0,0,1-58.784-3.8c-11.469-2.207-22.81-4.952-34.049-8.005a90.111,90.111,0,0,1-12.829-3.413,6.492,6.492,0,0,1-3.746-3.49,3.926,3.926,0,0,1,2.566-4.926l1.129,3.669c-.231-.8-1.257-2.386-.821-3.207s2.566-1.129,3.284-1.411c4.105-1.463,8.313-2.566,12.5-3.8,8.9-2.566,17.961-4.952,26.864-7.236,17.7-4.516,35.537-8.544,53.524-11.906a489.52,489.52,0,0,1,53.626-7.261c17.961-1.309,35.922-.128,53.883.359q15.806.462,31.689.8l15.857.334,7.7.154C543.019,31.913,545.456,31.631,546.919,33.375ZM514.974,39.3c-14.677-.282-29.328-.539-43.979-1a376.4,376.4,0,0,0-42.029.205,581.079,581.079,0,0,0-84.186,14.061Q321,58.072,297.518,64.73c28.224,8.134,57.218,14.292,86.623,12.5a182.713,182.713,0,0,0,42.029-7.7c14.24-4.285,28.019-9.9,42.157-14.446,16.935-5.465,33.946-10.7,50.984-15.908Z" transform="translate(-193.924 638.019)" fill="#ddc28e" fill-rule="evenodd"/>
        <path id="Контур_179" data-name="Контур 179" d="M446.985,38c1.745,2.258.487,5.132-.257,7.518-1.155,3.72-2.412,7.415-3.772,11.059-2.771,7.364-5.927,14.574-9.211,21.733-6.312,13.83-13.086,27.506-18.295,41.823-10.52,29.045-14.6,60.041-20.168,90.318-2.771,15.113-5.876,30.174-10.135,44.928-.872,3.053-1.514,7.7-3.541,10.263a3.772,3.772,0,0,1-6.286-.667,7.878,7.878,0,0,1,.513-6.261c1.206-3.8,2.31-7.7,3.336-11.521,7.877-29.61,11.444-60.092,17.833-90.036a287.642,287.642,0,0,1,14.318-48.751c6.645-16.293,14.83-31.945,21.5-48.238C421.3,74.282,411.5,89.6,400.826,104.3a218.1,218.1,0,0,0-26.659,46.468c-12.008,29.867-17.089,64.146-8.621,95.578a210.366,210.366,0,0,0,8.108,21.374c.9,2.309.8,5.286-2.412,5.388-2.771,0-4-3.361-4.952-5.414a130.342,130.342,0,0,1-12.214-45.775c-2.566-33,6.851-66.481,22.554-95.3,8.442-15.4,19.449-29.4,29.328-44a509.5,509.5,0,0,1,33.176-43.158C441.084,37.18,444.42,35.076,446.985,38Z" transform="translate(-284.428 432.743)" fill="#ddc28e" fill-rule="evenodd"/>
      </g>
    </g>
    <g id="Сгруппировать_29" data-name="Сгруппировать 29" transform="matrix(0.966, 0.259, -0.259, 0.966, 1638.117, -3635.578)">
      <g id="Layer_2-2" data-name="Layer 2" transform="translate(11.904 6570.19) rotate(1)">
        <g id="Layer_1-2" data-name="Layer 1" transform="translate(0 0)">
          <path id="Контур_180" data-name="Контур 180" d="M63.856.942c-.3,1.841-2.4,1.878-3.786,2.691a53.339,53.339,0,0,0-5.486,3.9,46.382,46.382,0,0,0-8.944,8.817,27.973,27.973,0,0,0-5.217,10.934c-.745,3.868,0,7.819-1.968,11.419s-5.709,5.814-9.123,8.02c-3.242,2.094-6.962,4.718-7.834,8.743s2.236,7.17,3.354,10.7A12.417,12.417,0,0,1,23.145,76.6c-2.4,3.6-6.261,5.329-10.435,5.963a52.643,52.643,0,0,1-6.03.425c-.947,0-1.893.052-2.84.089a11.293,11.293,0,0,1-2.743.075A1.207,1.207,0,0,1,.114,81.44c.373-.745,1.319-.857,2.05-.947,2.042-.253,4.144-.157,6.2-.239,4.085-.164,8.668-.6,11.605-3.8a10.1,10.1,0,0,0,2.124-10.2c-1.275-3.518-3.727-6.462-3.287-10.435,1.029-8.653,10.77-10.785,15.891-16.308,2.661-2.87,2.676-6.343,2.862-10.025A24.977,24.977,0,0,1,41,18.577a39.459,39.459,0,0,1,7.826-9.69,63.226,63.226,0,0,1,5.3-4.271A39.508,39.508,0,0,1,59.69.83C61.165.115,62.768-.66,63.856.942Z" transform="translate(133.506 38.824)" fill="#e6d3ad" fill-rule="evenodd"/>
          <path id="Контур_181" data-name="Контур 181" d="M59.729.633a1.752,1.752,0,0,1-1,1.863,13.274,13.274,0,0,0-2.8,1.871,7.57,7.57,0,0,0-1.863,5.7c.149,4.375,1.93,8.527,2.02,12.909a11.928,11.928,0,0,1-6.306,10.733c-4.2,2.475-9.2,3.086-13.416,5.471a11.127,11.127,0,0,0-4.7,4.77,9.265,9.265,0,0,0-.507,5.8c.745,4.2,2.706,8.162,1.647,12.507a17.419,17.419,0,0,1-7.968,10.681c-3.727,2.236-8.37,3.168-9.913,7.774-1.386,4.114-.268,8.631-1.968,12.671-1.826,4.383-6.432,6.373-10.822,7.349-.827.186-1.878.209-2.1-.835s.708-1.491,1.491-1.759c2.132-.745,4.427-1.222,6.313-2.5,3.883-2.624,3.488-7.565,3.816-11.687a14.781,14.781,0,0,1,1.6-6.082,11.926,11.926,0,0,1,4.934-4.576,56.7,56.7,0,0,0,6.41-3.414,14.557,14.557,0,0,0,4.562-5.367,11.441,11.441,0,0,0,1.3-6.06,34.936,34.936,0,0,0-1.394-6.037c-1.14-4.3-1.155-8.5,1.789-12.1s7.573-5.068,11.926-6.522c4.07-1.371,9.078-3.257,10.375-7.863,1.185-4.234-.745-8.87-1.394-13.036s-.246-8.542,3.361-11.322C56.39.6,58.275-.843,59.729.633Z" transform="translate(147.501 50.731)" fill="#e6d3ad" fill-rule="evenodd"/>
          <path id="Контур_182" data-name="Контур 182" d="M48.843,1.262c0,1.245.894,2.355,1.58,3.332A44.792,44.792,0,0,1,53.278,8.73a19.446,19.446,0,0,1,2.3,8.81,13.535,13.535,0,0,1-1.841,7.506c-1.64,2.631-4.263,4.405-6.865,5.963-4.01,2.445-11.307,6.082-8.713,11.926,2.4,5.4,9.891,7.513,10.815,13.767.954,6.47-6.932,9.585-11.858,10.972-2.9.82-5.858,1.386-8.743,2.236-2.676.79-5.717,2-6.82,4.807-.947,2.415.335,4.651,1.908,6.432,2.147,2.422,4.852,4.316,6.783,6.932,1.58,2.154,2.527,4.882,1.535,7.5s-3.4,4.562-5.687,5.963c-5.121,3.131-12.231,3.041-15.98,8.2a7.864,7.864,0,0,0-1.491,3.429c-.194,1.312-.06,2.676-.842,3.831a4.532,4.532,0,0,1-3.533,1.737c-.932.067-2.78.328-3.615-.224a1.245,1.245,0,0,1-.224-2,4.453,4.453,0,0,1,2.572-.4c.947,0,2.236.157,2.758-.835s.186-2.5.507-3.645a12.738,12.738,0,0,1,4.822-6.537c2.43-1.759,5.374-2.557,8.2-3.458,3.935-1.245,12.067-4.711,9.883-10.256S18.851,83.533,18.537,76.877c-.306-6.768,7.14-9.071,12.4-10.345a67.617,67.617,0,0,0,8.877-2.5c2.3-.909,4.957-2.169,6.134-4.472s-.1-4.472-1.632-6.164c-1.945-2.147-4.36-3.809-6.291-5.963s-3.436-4.994-3.041-7.99c.358-2.683,2.318-4.852,4.316-6.529,4.517-3.809,11.926-5.687,13.372-12.164a15.25,15.25,0,0,0-.648-8.393C50.93,9.379,48.694,7.083,47.2,4.333c-.514-.947-1.327-2.467-.783-3.548C47.122-.691,48.359.174,48.843,1.262Z" transform="translate(176.827 55.111)" fill="#e6d3ad" fill-rule="evenodd"/>
          <path id="Контур_183" data-name="Контур 183" d="M19.345.855c-.283,1.759-1.386,3.265-1.543,5.061a15.383,15.383,0,0,0,.939,5.784c1.282,4.189,2.624,8.2,2.929,12.611a30.3,30.3,0,0,1-1.245,11.24,25.135,25.135,0,0,1-6.1,9.69c-2.758,2.884-5.911,5.4-8.378,8.557-2.236,2.87-4.032,6.321-2.929,10.01s4.1,6.611,5.754,10.092a13.1,13.1,0,0,1,.365,10.748c-1.3,2.922-4.144,4.83-5.367,7.789a5.8,5.8,0,0,0,.253,5.024c.537,1.1,1.99,3.093,1.349,4.39a1.207,1.207,0,0,1-1.886.365c-.745-.552-.909-1.811-1.29-2.609C1.322,97.81.487,96.2.7,94.135c.358-3.9,3.347-6.224,5.344-9.295,2.184-3.354,1.692-7.491-.142-10.875S1.128,67.6.256,63.665c-1.752-7.9,5.873-14.057,10.875-18.88,2.885-2.78,5.374-5.776,6.671-9.622A27.22,27.22,0,0,0,19,23.714c-.425-4.047-1.752-7.856-2.892-11.732-1.021-3.458-1.409-7.126.261-10.435C17.086.05,18.249-.688,19.345.855Z" transform="translate(235.126 58.373)" fill="#e6d3ad" fill-rule="evenodd"/>
          <path id="Контур_184" data-name="Контур 184" d="M16.927,3.5a2.832,2.832,0,0,1-.112,3.347c-.939,1.178-2.527,1.319-3.92,1.386a24.6,24.6,0,0,1-9.533-1.1C1.662,6.495-.521,4.639.112,2.567.954-.169,5.084-.094,7.312.063,10.517.279,14.877.651,16.927,3.5ZM5.233,3.007a8.869,8.869,0,0,0-.879.209,3.979,3.979,0,0,0,.611.38C5.016,3.439,5.464,2.992,5.233,3.007Zm9.526,1.983a3.572,3.572,0,0,0-1.014-.745,1.841,1.841,0,0,1,.44,1.207C14.378,5.414,14.907,5.354,14.758,4.989Z" transform="translate(221.309 25.214)" fill="#e6d3ad" fill-rule="evenodd"/>
          <path id="Контур_185" data-name="Контур 185" d="M10.487.967C9.951,3.4,7.469,4.627,5.516,5.79A13.222,13.222,0,0,0,2.877,7.728C2.229,8.384,1.387,9.27.44,8.473c-1.878-1.655,2.8-4.4,3.786-5A17.223,17.223,0,0,0,7.894.721C8.862-.337,9.749-.21,10.487.967Z" transform="translate(234.062 20.471)" fill="#e6d3ad" fill-rule="evenodd"/>
          <path id="Контур_186" data-name="Контур 186" d="M10.413,1.047C9.981,3.231,7.029,2.866,5.27,3.007c-1.185.1-2.378.328-3.555.388C.91,3.44-.029,3.067,0,2.1.06.19,3.929.451,5.144.376S7.38.138,8.5.034A1.714,1.714,0,0,1,10.413,1.047Z" transform="translate(234.442 28.083)" fill="#e6d3ad" fill-rule="evenodd"/>
          <path id="Контур_187" data-name="Контур 187" d="M10.3,5.38a1.7,1.7,0,0,1-2.236.484c-1.125-.492-2.154-1.193-3.22-1.789A17.581,17.581,0,0,0,1.676,2.749C.826,2.488-.344,2,.1.848c.79-2.012,4.539.1,5.635.745S7.773,2.816,8.846,3.338,10.3,4.21,10.3,5.38Z" transform="translate(233.974 31.353)" fill="#e6d3ad" fill-rule="evenodd"/>
          <path id="Контур_188" data-name="Контур 188" d="M3.255,1.467a51.38,51.38,0,0,0-.47,6.142c0,.745-.075,1.737-.939,2.005S.408,9.2.214,8.451c-.5-1.863,0-4.271.224-6.157C.542,1.549.706.5,1.474.133,2.51-.366,3,.64,3.255,1.467Z" transform="translate(232.298 31.136)" fill="#e6d3ad" fill-rule="evenodd"/>
          <path id="Контур_189" data-name="Контур 189" d="M6.141,1.953C5.187,3.824,3.667,5.292,2.772,7.17c-.321.7-.745,1.543-1.625,1.491A1.422,1.422,0,0,1,.022,6.887C.335,4.867,2.176,3.25,3.22,1.6,3.637.932,4.069.052,4.971,0,6.126-.007,6.216,1.1,6.141,1.953Z" transform="translate(224.627 30.531)" fill="#e6d3ad" fill-rule="evenodd"/>
          <path id="Контур_190" data-name="Контур 190" d="M10.276.464A1.935,1.935,0,0,1,9.128,2.752c-1.111.7-2.236,1.342-3.414,1.96-.991.537-1.983,1.073-2.981,1.625-.745.4-1.826.88-2.46.045C-1.143,4.511,3.345,3,4.418,2.417S6.714,1.105,7.854.442A1.845,1.845,0,0,1,10.276.464Z" transform="translate(215.714 29.821)" fill="#e6d3ad" fill-rule="evenodd"/>
          <path id="Контур_191" data-name="Контур 191" d="M13.931,2.505c-.678,1.4-1.781,1.148-3.153,1.058s-2.8-.171-4.2-.283c-1.267-.1-7.319-.06-6.507-2.5C.41-.23,1.715-.021,2.512.12a39.708,39.708,0,0,0,4.4.544C8.408.784,9.9.888,11.352.955,12.686,1.022,13.506,1.141,13.931,2.505Z" transform="translate(210.793 27.571)" fill="#e6d3ad" fill-rule="evenodd"/>
          <path id="Контур_192" data-name="Контур 192" d="M12.447,6.515c-1,.827-1.714.522-2.8-.052C8.385,5.8,7.1,5.2,5.806,4.614S3.249,3.481,1.96,2.945C1.058,2.572-.522,1.871.171.589c.6-1.111,2.1-.38,2.929,0,1.379.6,2.758,1.185,4.129,1.8,1.245.559,2.46,1.178,3.727,1.789S12.574,5.188,12.447,6.515Z" transform="translate(214.162 22.213)" fill="#e6d3ad" fill-rule="evenodd"/>
          <path id="Контур_193" data-name="Контур 193" d="M2.625.866A20.174,20.174,0,0,1,4.242,4.9,17.6,17.6,0,0,0,6.419,8.67c.589.8,1.968,1.938,1.327,3.063s-2.065.343-2.683-.41A22.98,22.98,0,0,1,1.156,4.176C.843,3.259-.252,1.776.053.784.456-.535,2.058.032,2.625.866Z" transform="translate(221.92 16.286)" fill="#e6d3ad" fill-rule="evenodd"/>
          <path id="Контур_194" data-name="Контур 194" d="M4.593,1.238c0,2.422-1.029,4.658-1.588,6.976-.209.865-.09,2.34-.656,3.048a1.245,1.245,0,0,1-2.176-.4c-.41-1.051,0-2.527.276-3.57.335-1.275.82-2.5,1.163-3.727.253-.939.089-2.527.872-3.212C3.43-.514,4.221.388,4.593,1.238Z" transform="translate(229.29 16.764)" fill="#e6d3ad" fill-rule="evenodd"/>
          <path id="Контур_195" data-name="Контур 195" d="M7.461,1.608C6.753,3.941,4.852,5.573,3.548,7.57c-.522.745-.872,2.415-1.722,2.87A1.3,1.3,0,0,1,.008,9.285c-.1-1.058.745-2.236,1.334-3.071.745-1.051,1.588-1.99,2.34-2.981A9.969,9.969,0,0,0,4.688,1.57,2.579,2.579,0,0,1,5.605.214C6.76-.479,7.357.654,7.461,1.608Z" transform="translate(230.559 20.017)" fill="#e6d3ad" fill-rule="evenodd"/>
          <path id="Контур_196" data-name="Контур 196" d="M2.638,1.128a57.908,57.908,0,0,1,.1,6.231c0,.79-.067,1.848-1.021,2.05S.3,8.835.163,8.1C-.217,6.227.2,4.117.089,2.209.089,1.464.007.562.79.152,1.721-.332,2.25.435,2.638,1.128Z" transform="translate(227.049 19.81)" fill="#e6d3ad" fill-rule="evenodd"/>
          <path id="Контур_197" data-name="Контур 197" d="M6,5.011c.484.678,1.051,1.558.514,2.378A1.237,1.237,0,0,1,4.636,7.6,8.864,8.864,0,0,1,3.31,5.8,33.736,33.736,0,0,0,1.074,3.185C.515,2.566-.2,1.776.053.867A1.245,1.245,0,0,1,1.908.2,7.631,7.631,0,0,1,3.675,2.119C4.487,3.065,5.285,4,6,5.011Z" transform="translate(219.446 21.623)" fill="#e6d3ad" fill-rule="evenodd"/>
          <path id="Контур_198" data-name="Контур 198" d="M9.918,3.17a1.759,1.759,0,0,1-2.057.745C6.8,3.677,5.774,3.4,4.7,3.23S-.741,2.969.109.83C.75-.773,4.126.4,5.282.629a24.227,24.227,0,0,1,3.16.745A1.744,1.744,0,0,1,9.918,3.17Z" transform="translate(216.304 26.094)" fill="#e6d3ad" fill-rule="evenodd"/>
          <path id="Контур_199" data-name="Контур 199" d="M11.389,1.648c-.745,1.3-1.588,1.051-2.9.991a17.262,17.262,0,0,0-3.868.3C3.555,3.131-.015,4.607,0,2.341,0,.6,3.839.381,4.964.217A19.9,19.9,0,0,1,8.847.023C10.182.075,11.031.254,11.389,1.648Z" transform="translate(216.264 30.113)" fill="#e6d3ad" fill-rule="evenodd"/>
          <path id="Контур_200" data-name="Контур 200" d="M6.556.432c.328,1.8-1.163,2.281-2.378,3.309C3.344,4.45,1.406,6.589.28,5.187S1.719,2.206,2.643,1.55C3.918.611,5.014-.686,6.556.432Z" transform="translate(223.385 30.33)" fill="#e6d3ad" fill-rule="evenodd"/>
          <path id="Контур_201" data-name="Контур 201" d="M3.779.461a1.737,1.737,0,0,1-.365,1.655,3.265,3.265,0,0,0-.6,2.072C2.758,5.179,2.139,6.878.783,6.23S.171,2.98.522,1.974C1.058.364,2.363-.635,3.779.461Z" transform="translate(229.762 30.853)" fill="#e6d3ad" fill-rule="evenodd"/>
          <path id="Контур_202" data-name="Контур 202" d="M4.287,5.508c-1.453.5-2.139-.373-2.981-1.491C.672,3.19-.6,1.513.33.462c1.185-1.327,2.132.544,2.631,1.357C3.788,3.183,5.13,3.853,4.287,5.508Z" transform="translate(234.747 32.723)" fill="#e6d3ad" fill-rule="evenodd"/>
          <path id="Контур_203" data-name="Контур 203" d="M4.772,1.785c-.745,1.125-1.416.962-2.639.842-.9-.089-2.3-.216-2.117-1.491C.158.175,1.306-.033,2.1,0,3.49.041,4.5.317,4.772,1.785Z" transform="translate(237.653 31.429)" fill="#e6d3ad" fill-rule="evenodd"/>
          <path id="Контур_204" data-name="Контур 204" d="M4.676.891c-.2,1.491-1.14,1.625-2.4,2.087-.894.335-2.184.4-2.273-.924C-.064,1.115,1.069.623,1.792.34,3.014-.137,3.849-.241,4.676.891Z" transform="translate(236.393 26.383)" fill="#e6d3ad" fill-rule="evenodd"/>
          <path id="Контур_205" data-name="Контур 205" d="M76.56,29.764a10.158,10.158,0,0,1,1.163,10.107A6.914,6.914,0,0,1,69.2,42.994c-.365,3.376.1,6.82-.678,10.152a9.69,9.69,0,0,1-7.26,7.349,9.3,9.3,0,0,1-8.907-3.041,18.13,18.13,0,0,1-1.9-2.437c-.373-.574-.507-1.2-1.237-1.1-1.819.246-3.57,2.124-4.927,3.227-2.393,1.938-5.307,3.689-8.512,3.168a10.353,10.353,0,0,1-7.714-6.4,24.9,24.9,0,0,1-.417-2.773c-.209-1.058-.947-.9-1.923-.835a28.736,28.736,0,0,0-5.747,1.237c-3.279.917-6.745,1.558-10.04.306a12.358,12.358,0,0,1-7.386-8.46,9.488,9.488,0,0,1,4.934-10.2,29.167,29.167,0,0,1-5.053-4.658A13.245,13.245,0,0,1,.192,22.668c-.6-4,.037-8.564,4.554-9.772,2.035-.552,3.958-.194,6.007-.231.9,0,1.573-.142,1.975-1.021a8.385,8.385,0,0,0,.522-2.937c.1-1.8-.358-3.831.581-5.471A6.425,6.425,0,0,1,18.587.091c4.584-.574,9.294,2.564,12.768,5.217,2.534-3.6,7.312-5.15,11.553-5.3C46.284-.1,51.658.755,53,4.481a5.731,5.731,0,0,1,.3,2.273c0,.671-.306,1.64.052,2.236.6,1.081,3.235.745,4.249.678a32.6,32.6,0,0,1,5.709-.35,8.274,8.274,0,0,1,5.218,2.668c3.116,3.287,4.01,8.586-.1,11.463A19.379,19.379,0,0,1,76.56,29.764ZM11.312,33.17A1.424,1.424,0,0,1,11,34.9c-.552.507-1.252.358-1.923.5-1.55.321-2.758,1.938-3.421,3.272-1.327,2.653-.425,5.6,1.371,7.781a9.071,9.071,0,0,0,8.02,3.451c3.526-.328,6.8-1.953,10.338-2.236,1.237-.089,3.026-.268,4.01.678s.79,2.847,1.036,4.159c.507,2.691,3.608,5.068,6.261,5.322,3.6.35,6.589-3.548,9.347-5.292a9.213,9.213,0,0,1,3.287-1.416c1.61-.268,2.273.6,3.1,1.878,1.684,2.6,3.727,5.143,7.118,5.024a6.768,6.768,0,0,0,6.179-4.748c.939-2.9.589-6.06.745-9.049.067-1.215-.089-3.332,1.237-3.95,1.058-.5,2.191.35,3.227.507a4.472,4.472,0,0,0,4.2-1.58,6.574,6.574,0,0,0,.693-4.658c-.626-3.235-3.257-5.717-5.963-7.379a21.052,21.052,0,0,0-2.5-1.312c-.708-.313-1.789-.522-2.281-1.178-1.148-1.491.939-2.713,1.916-3.473,2.773-2.154,1.491-5.858-.842-7.819s-5.218-1.394-8.042-1.111c-2.571.261-6.663.365-7.319-2.892-.283-1.394.432-3.466-.566-4.614a7.874,7.874,0,0,0-4.472-1.975A14.639,14.639,0,0,0,35.573,4.854a8.066,8.066,0,0,0-2.005,1.863c-.149.2-.484,1.043-.648,1.1s-.984-.447-1.2-.544l1.2.544c-.745,1.491-2.191.365-3.056-.321a29.891,29.891,0,0,0-5.218-3.332c-1.863-.924-4.234-1.893-6.343-1.312a3.428,3.428,0,0,0-2.094,1.58,5.418,5.418,0,0,0-.3,2.609c0,2.154,0,4.688-1.282,6.537s-3.227,1.737-5.218,1.61-4.271-.216-5.672,1.245c-1.193,1.23-1.26,3.145-1.118,4.755a11.083,11.083,0,0,0,2.728,6.79,24.233,24.233,0,0,0,2.84,2.467C9.2,31.2,10.694,32.059,11.312,33.17Z" transform="translate(192.415)" fill="#e6d3ad" fill-rule="evenodd"/>
          <path id="Контур_206" data-name="Контур 206" d="M130.55,18.7c9.287,23.754,11.926,50.617,5.6,75.452-3.078,12.142-8.013,24.187-16.569,33.541A79.487,79.487,0,0,1,86.4,148.61c-11.776,3.935-24.671,5.441-36.91,2.922-12.417-2.557-23.158-9.988-31.625-19.237a67.454,67.454,0,0,1-16.83-34.07c-2.1-12.231-.842-24.843,2.437-36.753a76.071,76.071,0,0,1,18.321-32.4c9.227-9.734,20.5-17.188,31.8-24.276,1.379-.865,2.765-1.729,4.159-2.579A37.067,37.067,0,0,1,61.069.181c1-.462,2.333-.045,2.035,1.289s-2.489,2.08-3.525,2.713C53.846,7.672,48.182,11.3,42.651,15.1,31.725,22.609,21.536,31.494,14.4,42.763,7.814,53.2,4.311,65.459,3.051,77.683,1.776,90.13,3.409,102.831,8.783,114.2a68.736,68.736,0,0,0,25.864,28.726c10.495,6.455,23.061,8.132,35.151,6.708a80.766,80.766,0,0,0,35.948-13.528,66.611,66.611,0,0,0,14.512-13.237,64.455,64.455,0,0,0,9.317-16.763c9.309-23.747,9.376-50.356,2.445-74.729q-1.319-4.651-2.981-9.2c-.328-.9-1.3-2.482-.872-3.481C128.687,17.451,129.9,18,130.55,18.7Z" transform="translate(132.208 23.224)" fill="#e6d3ad" fill-rule="evenodd"/>
          <path id="Контур_207" data-name="Контур 207" d="M24.036,8.316c1.111,1.58.164,3.727-.552,5.292a18.633,18.633,0,0,1-4.129,5.724,9.378,9.378,0,0,1-6.507,2.981,13.059,13.059,0,0,1-6.708-1.96A12.478,12.478,0,0,1,.99,14.688a15.563,15.563,0,0,1-.85-7.55A22.464,22.464,0,0,1,.729,3.694C1,2.651,1.341.914,2.317.273,3.972-.815,7.177,1.645,8.548,2.457a34.909,34.909,0,0,0,7.975,3.414A27.577,27.577,0,0,0,20.6,6.877C21.853,7.063,23.261,7.2,24.036,8.316ZM21.882,9.806a12.015,12.015,0,0,0-2.594-.432,27.373,27.373,0,0,1-3.086-.85,49.085,49.085,0,0,1-6.015-2.236C8.407,5.446,6.707,4.447,4.97,3.478c-.544-.306-1.066-.79-1.439-.089a9,9,0,0,0-.589,2.549c-.626,3.771-.328,7.953,2.6,10.733C7.691,18.7,11.164,20.4,14.161,19.6c2.08-.529,3.727-2.355,5.016-3.988,1.14-1.453,2.952-3.824,2.706-5.791Z" transform="translate(160.557 164.868)" fill="#e6d3ad" fill-rule="evenodd"/>
          <path id="Контур_208" data-name="Контур 208" d="M170.127,1.439c-1.841,16.4-8.05,31.893-15.429,46.54-1.841,3.66-3.831,7.26-5.612,10.957s-3.317,7.453-5.031,11.18c-3.518,7.625-8.34,14.5-13.416,21.19a193.1,193.1,0,0,1-35.18,36.112c-13.349,10.4-28.323,18.82-44.557,23.851a113.91,113.91,0,0,1-24.559,4.778,135.448,135.448,0,0,1-23.963-.611c-1.021-.1-3.123-.745-2.109-2.147.887-1.252,2.981-.477,4.152-.3a88.646,88.646,0,0,0,12.1.783,108.817,108.817,0,0,0,24.306-2.557C57.3,147.595,72.777,140.26,86.6,130.675a181.964,181.964,0,0,0,37.215-34.912,162.578,162.578,0,0,0,14.609-20.482c4.174-7.245,6.88-14.981,10.681-22.3C156.74,38.3,163.828,23.218,166.683,6.768c.3-1.707.358-3.488.745-5.217A1.722,1.722,0,0,1,168.591.023C169.568-.148,169.9.671,170.127,1.439Z" transform="translate(0 185.004)" fill="#e6d3ad" fill-rule="evenodd"/>
          <path id="Контур_209" data-name="Контур 209" d="M7.654,1.27C6.8,2.977,4.956,4.3,3.629,5.645c-.6.611-1.364,1.438-2.236,1.491A1.23,1.23,0,0,1,.007,5.787c.082-.8.909-1.312,1.453-1.8.8-.745,1.558-1.491,2.333-2.236C4.956.584,6.842-1.264,7.654,1.27Z" transform="translate(160.341 209.904)" fill="#e6d3ad" fill-rule="evenodd"/>
          <path id="Контур_210" data-name="Контур 210" d="M7.194,1.238C6.448,2.78,4.7,3.846,3.422,4.964c-.8.678-3.175,2.1-3.414.067C-.088,4.2.642,3.682,1.224,3.22c.835-.671,1.692-1.312,2.519-1.99C5.017.172,6.493-.909,7.194,1.238Z" transform="translate(146.99 238.58)" fill="#e6d3ad" fill-rule="evenodd"/>
          <path id="Контур_211" data-name="Контур 211" d="M6.469.568C6.611,2.342,4.979,2.8,3.63,3.49c-.939.5-3.078,1.565-3.57-.1C-.388,1.9,1.8,1.313,2.773.9,4.174.292,5.15-.595,6.469.568Z" transform="translate(135.379 263.25)" fill="#e6d3ad" fill-rule="evenodd"/>
          <path id="Контур_212" data-name="Контур 212" d="M4.782,1.014C4.514,2.3,3.724,2.5,2.546,2.758,1.652,2.952.377,3.034.057,1.9-.309.634,1.175.3,2.077.135,3.351-.1,4.052-.156,4.782,1.014Z" transform="translate(116.517 289.428)" fill="#e6d3ad" fill-rule="evenodd"/>
          <path id="Контур_213" data-name="Контур 213" d="M6.527,1.9c-.917,1.67-2.311.909-3.883.835-.991-.045-2.75,0-2.639-1.491S1.883-.033,2.875.078C4.44.265,6.05.138,6.527,1.9Z" transform="translate(97.279 307.015)" fill="#e6d3ad" fill-rule="evenodd"/>
          <path id="Контур_214" data-name="Контур 214" d="M5.558,2.1c-.745,1.364-1.781,1.066-3.138.79C1.414,2.677-.621,2.14.184.649c.522-1,1.953-.6,2.8-.388C4.284.6,5.2.642,5.558,2.1Z" transform="translate(76.237 322.23)" fill="#e6d3ad" fill-rule="evenodd"/>
          <path id="Контур_215" data-name="Контур 215" d="M.12,1.557C-.67.066,2.7-.977,2.758,1.43c0,.8-.47,1.707-1.357,1.677S.209,2.183.12,1.557Zm2.027.7a1.223,1.223,0,0,0,.447-.626Z" transform="translate(125.368 274.097)" fill="#e6d3ad" fill-rule="evenodd"/>
          <path id="Контур_216" data-name="Контур 216" d="M2.656,1.134A12.344,12.344,0,0,1,2.85,4.316C2.7,5.293,1.8,6.4.763,5.494c-.745-.686-.805-3.041-.745-4A1.491,1.491,0,0,1,1.135.008C1.955-.081,2.32.575,2.656,1.134Z" transform="translate(139.356 251.549)" fill="#e6d3ad" fill-rule="evenodd"/>
          <path id="Контур_217" data-name="Контур 217" d="M2.842,1.4a11.375,11.375,0,0,0-.127,2.847c.045.693.149,1.491-.462,2.012C1.113,7.2.308,6.026.122,4.982A10.434,10.434,0,0,1,.159,1.576C.465-.392,2.41-.593,2.842,1.4Z" transform="translate(151.766 224.207)" fill="#e6d3ad" fill-rule="evenodd"/>
          <path id="Контур_218" data-name="Контур 218" d="M2.523.907C2.747,1.935,4.014,3.4,3.1,4.32S1.212,4.5.7,3.679A3.965,3.965,0,0,1,.041.862C.481-.584,1.9.042,2.523.907Z" transform="translate(161.916 198.856)" fill="#e6d3ad" fill-rule="evenodd"/>
          <path id="Контур_219" data-name="Контур 219" d="M2.788,1.431a33.182,33.182,0,0,0,0,4.792,1.871,1.871,0,0,1-.745,1.67,1.3,1.3,0,0,1-1.7-.567,5,5,0,0,1-.328-2.46A23.8,23.8,0,0,1,.1,1.774C.187.992.4.015,1.365,0S2.58.671,2.788,1.431Z" transform="translate(105.743 292.514)" fill="#e6d3ad" fill-rule="evenodd"/>
          <path id="Контур_220" data-name="Контур 220" d="M3.307,1.932c-.514.932-.745,2.862-2.162,2.78C-.055,4.645-.137,3.385.117,2.476A3.57,3.57,0,0,1,1.608.165C2.972-.476,3.426.881,3.307,1.932Z" transform="translate(86.404 311.042)" fill="#e6d3ad" fill-rule="evenodd"/>
          <path id="Контур_221" data-name="Контур 221" d="M4.34.905A8.564,8.564,0,0,1,2.364,4.774,1.3,1.3,0,0,1,.017,3.842,7.147,7.147,0,0,1,1.552,1.129C2.5-.2,3.363-.459,4.34.905Z" transform="translate(63.115 324.151)" fill="#e6d3ad" fill-rule="evenodd"/>
          <path id="Контур_222" data-name="Контур 222" d="M5.218,2.979c-.887.976-1.61.827-2.773.358C1.476,2.949-.305,2.3.045.914.477-.823,2.184.377,3.116.772,4.338,1.294,5.18,1.466,5.218,2.979Z" transform="translate(52.816 333.265)" fill="#e6d3ad" fill-rule="evenodd"/>
          <path id="Контур_223" data-name="Контур 223" d="M3.409.977A3.779,3.779,0,0,1,2.164,3.384,1.3,1.3,0,0,1,0,2.572,3.291,3.291,0,0,1,1.225.41C2.164-.417,2.813.127,3.409.977Z" transform="translate(34.702 334.492)" fill="#e6d3ad" fill-rule="evenodd"/>
        </g>
      </g>
      <g id="Layer_2-3" data-name="Layer 2" transform="matrix(0.643, -0.766, 0.766, 0.643, -278.581, 6649.951)" opacity="0.2">
        <g id="Layer_1-3" data-name="Layer 1" transform="translate(0 0)">
          <path id="Контур_171-2" data-name="Контур 171" d="M558,.751c2.342,2.49-2.383,4.149-4.016,4.859-4.645,1.968-9.182,4.243-13.774,6.358-9.852,4.551-19.69,9.2-29.648,13.506A309.493,309.493,0,0,1,449.539,44.8,371.26,371.26,0,0,1,385.624,51.5c-10.909.294-21.818.294-32.714.2h-3.935a8.2,8.2,0,0,0-3.132.2c-2.449.9-4.832,2.115-7.215,3.2q-7.536,3.387-14.938,7.094a620.733,620.733,0,0,0-57.316,32.821c-18.632,11.886-36.77,24.482-54.88,37.184s-36.381,25.66-54.278,38.911-35.351,26.771-52.43,40.959c-8.473,7.027-17.12,13.907-24.776,21.845s-14.376,16.718-22.193,24.5-16.062,15.206-23.826,23.05S18.664,297.438,11.637,306q-2.6,3.132-5.073,6.358c-.683.883-1.339,1.78-1.994,2.677a6.052,6.052,0,0,1-2.1,2.369,1.794,1.794,0,0,1-2.209-.442c-.616-.87,0-1.914.442-2.677,1.339-2.061,2.958-4.016,4.457-6.023A280.7,280.7,0,0,1,27.044,283c7.67-7.951,15.674-15.527,23.638-23.17s15.032-15.9,22.421-24.094A251.475,251.475,0,0,1,97.29,213.217q12.689-10.708,25.753-21.015c17.4-13.693,35.137-26.864,53.073-39.768S212.417,126.641,230.7,114,267.471,89.255,286.519,78a536.018,536.018,0,0,1,57.959-29.809c20.078-8.767,39.9-18.284,60.234-26.57,19.462-7.871,39.7-14.429,60.636-16.973,10.708-1.339,21.417-1.553,32.125-1.9,11.137-.348,22.287-.629,33.463-1.084,5.14-.228,10.28-.562,15.42-.883,2.249-.147,4.5-.2,6.693-.5C554.507.082,556.836-.427,558,.751ZM533.211,5.61,496.093,6.761c-11.7.361-23.451.669-35.056,2.436-23.25,3.534-45.35,11.726-66.82,21.069-12.729,5.555-25.3,11.458-37.988,17.066,25.579.214,51.266-.2,76.631-3.908A302.652,302.652,0,0,0,506,22.944C519.464,17.3,532.635,10.9,545.913,4.834Z" transform="translate(0 99.578)" fill="#ddc28e" fill-rule="evenodd"/>
          <path id="Контур_172-2" data-name="Контур 172" d="M209.5.61c2.061,2.316-1.66,4.337-3.2,5.542-3.587,2.8-7.148,5.649-10.708,8.513a230.992,230.992,0,0,0-21.2,18.565C167.928,39.923,161.5,46.616,154.731,53s-13.787,12.676-20.895,18.74c-14.122,12.047-28.725,23.679-43.971,34.36s-30.371,22.193-45.109,33.919q-12.3,9.811-24.5,19.81c-3.788,3.119-7.509,6.3-11.284,9.45a42.835,42.835,0,0,1-5.716,4.23c-1.539.883-3.8,0-3.146-2.075.375.12.75-1.954.9-2.409.281-1,.6-1.981.95-2.972.736-2.128,1.579-4.23,2.5-6.3,1.687-3.815,3.627-7.523,5.662-11.163a159.042,159.042,0,0,1,15.447-22.648c11.779-14.47,25.74-27.012,40.518-38.322a549.521,549.521,0,0,1,45.831-30.96c15.862-9.771,31.871-19.3,47.933-28.738q13.693-8.031,27.4-16.062l13.385-8.031c1.673-.991,3.293-2.088,4.966-3.079C206.84.128,208.3-.5,209.5.61ZM177.512,22.616c-25.62,14.951-51.333,29.823-76.3,45.818-24.776,15.835-49.084,33.33-68.587,55.549a144.679,144.679,0,0,0-26.142,41.4c23.143-19.181,46.42-38.376,70.822-55.938,12.047-8.634,24.094-17.026,35.672-26.222s23.036-18.98,34.066-29.086c6.144-5.649,12.167-11.431,17.977-17.4s11.632-11.886,18-17.294Z" transform="translate(245.938 31.24)" fill="#ddc28e" fill-rule="evenodd"/>
          <path id="Контур_173-2" data-name="Контур 173" d="M246.307,14.869a2.048,2.048,0,0,1-.991,3.346,37.828,37.828,0,0,1-6.01,1.017l-13.118,2.249q-13.118,2.2-26.262,4.31c-17.321,2.784-34.695,5.073-52.082,7.415-33.611,4.524-68.265,9.544-102.1,4.524A114.26,114.26,0,0,1,19.626,30.9,77.2,77.2,0,0,1,6.99,24.4c-1.66-1.071-10.32-5.97-5.6-8.272L2.318,18.2c-.442-1-1.111-1.406,0-2.021a56.851,56.851,0,0,1,5.742-2.369c3.828-1.459,7.71-2.757,11.632-4.016A218.487,218.487,0,0,1,43.933,3.853,217.218,217.218,0,0,1,92.228.132c16.665.629,33.316,2.4,49.954,3.547,16.973,1.165,33.918,2.2,50.864,3.949,9.37.977,18.74,2.088,28.109,3.279,4.725.6,9.37,1.245,14.148,1.9,2.128.294,4.243.683,6.371.87C243.121,13.825,245.2,13.731,246.307,14.869Zm-14.644,1.513c-14.858-2.035-29.729-3.855-44.654-5.354S157.066,8.7,142.088,7.668s-29.742-2.436-44.64-3.293A216.252,216.252,0,0,0,54.213,6.222,227.135,227.135,0,0,0,6.428,18.443C18.407,27.237,33.2,31.4,47.721,33.475A229.1,229.1,0,0,0,92.6,34.867c15.139-.83,30.211-2.57,45.243-4.538C153.091,28.321,168.39,26.5,183.6,24.2c8.486-1.272,16.959-2.677,25.432-4.016l12.93-2.115,6.01-.991,2.316-.415C230.472,16.582,231.435,16.248,231.663,16.382Z" transform="translate(246.521 188.22)" fill="#ddc28e" fill-rule="evenodd"/>
          <path id="Контур_174-2" data-name="Контур 174" d="M228.985.7c1.5,1.9-.964,3.721-2.182,4.953l-6.264,6.3q-6.425,6.519-12.77,13.144c-8.473,8.834-16.5,18.1-24.415,27.44-15.741,18.619-30.786,37.894-44.747,57.865-14.135,20.212-26.771,41.414-40.558,61.867-6.693,9.972-13.707,19.784-21.2,29.18-7.723,9.678-15.915,19.007-24.027,28.364S36.758,248.4,28.1,257.112c-4.35,4.377-8.995,8.46-13.385,12.783-2.128,2.088-4.19,4.216-6.157,6.465-.87,1.017-1.673,2.1-2.57,3.105S3.99,280.8,3.308,281.835c-.522.736-1.151,1.646-2.2,1.218A2.382,2.382,0,0,1,0,280.952a10.144,10.144,0,0,1,.817-3.534c.455-1.459.95-2.918,1.486-4.35a138.367,138.367,0,0,1,7.4-16.3c5.608-10.708,11.779-21.176,17.24-32,11.016-21.8,22.755-43.288,35.739-63.942a501.353,501.353,0,0,1,43.5-59.123c8.031-9.3,16.317-18.351,25.031-26.972a316.118,316.118,0,0,1,27.56-23.893C177.893,35.839,197.4,21.275,217.045,6.98l6.88-5.006C225.317.97,227.459-1.078,228.985.7ZM204.891,21.034c-8.46,6.238-16.758,12.689-25.151,19.007s-17.013,12.783-25.258,19.5a358.383,358.383,0,0,0-44.76,44.413A487.123,487.123,0,0,0,71.533,154.7c-11.552,17.575-22.059,35.806-31.9,54.4-4.845,9.156-9.37,18.512-14.255,27.641s-10.36,17.923-14.9,27.226q-1.686,3.413-3.159,6.947c6.987-7.549,14.938-14.135,21.952-21.671S43.33,233.8,50.17,225.911c13.626-15.755,27.038-31.563,38.938-48.7s22.822-34.976,34.267-52.444,23.96-34.641,36.93-51.2,26.316-32.7,40.651-47.96c1.687-1.794,3.373-3.574,5.086-5.354Z" transform="translate(138.248 0)" fill="#ddc28e" fill-rule="evenodd"/>
          <path id="Контур_175-2" data-name="Контур 175" d="M288.381,9.406c1.553,1.66-.294,3.172-1.82,3.6-2.168.616-4.4,1.084-6.586,1.66q-7.228,1.927-14.443,3.8c-9.785,2.516-19.663,4.618-29.448,7.175S216.6,31,206.77,33.433A261.026,261.026,0,0,1,177.9,38.667c-20.078,2.53-40.357,3.735-60.582,4.725s-40.6,1.633-60.9,2.316c-10.079.348-20.158.723-30.224,1.2-4.805.228-9.6.442-14.389.924-2.383.228-4.765.522-7.134.924-1.459.241-3.186.83-4.243-.6a1.941,1.941,0,0,1-.388-1.566c.12-.509.937-1.7,1.339-1.017.281,0,.187-.442.308-.482s.549-.12.8-.2A14.122,14.122,0,0,0,5.16,43.632c2.061-1.138,4.19-2.168,6.278-3.239Q18.13,36.98,24.823,33.7c8.808-4.377,17.682-8.66,26.771-12.355A290.128,290.128,0,0,1,107.357,5.564,340.094,340.094,0,0,1,164.539.036c19.543-.281,39.018,1.111,58.467,2.677,19.9,1.646,39.781,3.574,59.659,5.635C284.2,8.483,287.176,8.175,288.381,9.406Zm-12.944,2.142c-17.856-1.82-35.739-3.52-53.622-4.993-17.521-1.432-35.07-2.677-52.658-2.677A332.987,332.987,0,0,0,67.107,19.86C48.368,25.937,30.967,34.878,13.3,43.565c17.4-1.339,34.909-1.713,52.363-2.275s35-1.151,52.5-2.008,34.8-1.887,52.136-3.761c8.178-.9,16.33-1.954,24.4-3.52,8.486-1.633,16.839-3.815,25.178-6.077,9.37-2.53,18.606-5.073,28-7.3s18.9-4.524,28.283-7.014Z" transform="translate(138.309 233.759)" fill="#ddc28e" fill-rule="evenodd"/>
          <path id="Контур_176-2" data-name="Контур 176" d="M109.4.7c1.646,2.048-1.339,4.738-2.49,6.278L99.718,16.987c-4.9,6.827-9.637,13.733-14.095,20.868A426.676,426.676,0,0,0,61.449,82.121C54.207,97.46,47.823,113.2,41,128.742S26.714,159.06,20.383,174.614c-3.561,8.727-6.987,17.521-10.36,26.329-1.62,4.23-3.253,8.46-4.752,12.729-.482,1.339-1.044,3.721-2.677,4.149a2.061,2.061,0,0,1-2.583-2.2l2.035.187c-.428,0-1.339.187-1.713-.161s0-1.245,0-1.687c.228-2.115.388-4.257.6-6.385.442-4.27.91-8.526,1.338-12.8.9-8.593,1.633-17.2,2.677-25.78a287.989,287.989,0,0,1,9.892-50.142A175.579,175.579,0,0,1,35.963,73.152,236.828,236.828,0,0,1,51.8,52.325c5.568-6.693,11.311-13.292,17.321-19.636a212.227,212.227,0,0,1,21.042-19.7c3.828-3.092,7.737-6.09,11.645-9.075,1.339-1.057,2.677-2.262,4.136-3.226C107.053-.012,108.364-.427,109.4.7ZM97.107,13.052a206.886,206.886,0,0,0-16.062,13.72c-5.02,4.859-9.852,9.919-14.537,15.1-9.571,10.588-19.047,21.6-26.931,33.53C24.01,98.919,15.7,125.985,11.187,153.625c-2.53,15.527-3.855,31.2-5.6,46.849,4.886-12.716,9.8-25.432,15.166-37.961s11.685-24.9,17.187-37.479,10.708-25.1,16.29-37.479,11.752-24.5,18.458-36.328A423.593,423.593,0,0,1,97.429,12.918Z" transform="translate(89.356 105.173)" fill="#ddc28e" fill-rule="evenodd"/>
          <path id="Контур_177-2" data-name="Контур 177" d="M1.814,16.04A130.707,130.707,0,0,1,20.741,8.731a173.712,173.712,0,0,1,19.6-5.18A209.855,209.855,0,0,1,81.484.017c14.028,0,28.109.576,42.11,1.539,14.2.977,28.337,2.677,42.512,3.909,7.027.656,14.068,1.178,21.122,1.74,3.453.268,6.92.629,10.387.79,1.927.094,6.92-.321,7.469,2.262s-4.2,3.253-5.93,3.828a85.95,85.95,0,0,1-10.039,2.5c-6.773,1.339-13.546,2.811-20.346,4.016A514.551,514.551,0,0,1,86.142,29.72a325.172,325.172,0,0,1-41.95-1.539c-13.707-1.472-26.945-4.671-40.37-7.67C2.6,20.229.93,20.055.261,18.851a2.075,2.075,0,0,1,1-2.918C1.372,16.334,1.479,16.334,1.814,16.04Zm191.571-4.39c-12.422-1-24.83-1.874-37.225-3.092-12.194-1.218-24.4-2.409-36.622-3.159S95.19,4.167,83.009,4.06A221.1,221.1,0,0,0,47.07,6.4,191.178,191.178,0,0,0,8.493,17.2a299.06,299.06,0,0,0,35.5,6.773,306.815,306.815,0,0,0,36.14,1.753A484.915,484.915,0,0,0,152.988,19.4q10.24-1.579,20.453-3.6c6.693-1.339,13.559-2.516,20.225-4.136Z" transform="translate(86.213 305.804)" fill="#ddc28e" fill-rule="evenodd"/>
          <path id="Контур_178-2" data-name="Контур 178" d="M139.6,1.944c2.449,2.838-3.119,3.949-4.886,4.484-5.354,1.606-10.6,3.226-15.9,4.859-10.708,3.333-21.5,6.6-32.044,10.467a114.459,114.459,0,0,1-29.6,7.134A112.3,112.3,0,0,1,26.5,26.908c-5.983-1.151-11.9-2.583-17.762-4.176a47.009,47.009,0,0,1-6.693-1.78A3.387,3.387,0,0,1,.1,19.131a2.048,2.048,0,0,1,1.339-2.57l.589,1.914C1.9,18.06,1.367,17.23,1.595,16.8s1.338-.589,1.713-.736c2.142-.763,4.337-1.339,6.519-1.981,4.645-1.339,9.37-2.583,14.014-3.775C33.077,7.954,42.38,5.853,51.763,4.1A255.368,255.368,0,0,1,79.738.311c9.37-.683,18.74-.067,28.109.187q8.245.241,16.531.415l8.272.174,4.016.08C137.563,1.181,138.835,1.034,139.6,1.944ZM122.933,5.036c-7.656-.147-15.3-.281-22.943-.522a196.356,196.356,0,0,0-21.925.107,303.132,303.132,0,0,0-43.917,7.335Q21.74,14.828,9.492,18.3c14.724,4.243,29.849,7.456,45.189,6.519A95.316,95.316,0,0,0,76.606,20.8c7.429-2.235,14.617-5.167,21.992-7.536,8.834-2.851,17.709-5.582,26.6-8.3Z" transform="translate(44.55 348.303)" fill="#ddc28e" fill-rule="evenodd"/>
          <path id="Контур_179-2" data-name="Контур 179" d="M48.687.747c.91,1.178.254,2.677-.134,3.922-.6,1.941-1.258,3.868-1.968,5.769-1.446,3.842-3.092,7.6-4.805,11.337-3.293,7.215-6.827,14.349-9.544,21.818C26.749,58.745,24.62,74.915,21.716,90.71c-1.446,7.884-3.065,15.741-5.287,23.438-.455,1.593-.79,4.016-1.847,5.354a1.968,1.968,0,0,1-3.279-.348,4.11,4.11,0,0,1,.268-3.266c.629-1.981,1.2-4.016,1.74-6.01,4.109-15.447,5.97-31.349,9.3-46.969a150.056,150.056,0,0,1,7.469-25.432c3.467-8.5,7.737-16.665,11.217-25.165-6.01,7.362-11.123,15.353-16.691,23.023A113.774,113.774,0,0,0,10.7,59.575C4.435,75.156,1.785,93.039,6.2,109.436a109.732,109.732,0,0,0,4.23,11.15c.469,1.2.415,2.757-1.258,2.811-1.446,0-2.088-1.753-2.583-2.824A68,68,0,0,1,.219,96.693C-1.12,79.479,3.793,62.011,11.985,46.98c4.4-8.031,10.146-15.34,15.3-22.956A265.793,265.793,0,0,1,44.591,1.51C45.608.318,47.349-.779,48.687.747Z" transform="translate(36.114 244.828)" fill="#ddc28e" fill-rule="evenodd"/>
        </g>
      </g>
    </g>
  </g>
</svg>
