<svg xmlns="http://www.w3.org/2000/svg" width="126.002" height="126.001" viewBox="0 0 126.002 126.001">
  <path id="Union_4" data-name="Union 4" d="M-12285,10553a63,63,0,0,1,63-63,63,63,0,0,1,63,63,63,63,0,0,1-63,63A63,63,0,0,1-12285,10553Zm40.038-54.365a58.8,58.8,0,0,0-10.021,5.438,59.636,59.636,0,0,0-8.737,7.205,59.507,59.507,0,0,0-7.205,8.735,58.823,58.823,0,0,0-5.438,10.022A58.592,58.592,0,0,0-12281,10553a58.587,58.587,0,0,0,4.635,22.963,58.8,58.8,0,0,0,5.438,10.02,59.354,59.354,0,0,0,7.205,8.735,59.469,59.469,0,0,0,8.737,7.208,58.936,58.936,0,0,0,10.021,5.438A58.635,58.635,0,0,0-12222,10612a58.635,58.635,0,0,0,22.963-4.634,58.9,58.9,0,0,0,10.021-5.438,59.469,59.469,0,0,0,8.737-7.208,59.422,59.422,0,0,0,7.206-8.735,58.933,58.933,0,0,0,5.438-10.02A58.587,58.587,0,0,0-12163,10553a58.591,58.591,0,0,0-4.634-22.964,58.959,58.959,0,0,0-5.438-10.022,59.575,59.575,0,0,0-7.206-8.735,59.636,59.636,0,0,0-8.737-7.205,58.762,58.762,0,0,0-10.021-5.438A58.586,58.586,0,0,0-12222,10494,58.586,58.586,0,0,0-12244.963,10498.636Zm26.965,79.246V10529a4,4,0,0,1,4-4,4,4,0,0,1,4,4v48.884a4,4,0,0,1-4,4A4,4,0,0,1-12218,10577.882Zm-16,0V10529a4,4,0,0,1,4-4,4,4,0,0,1,4,4v48.884a4,4,0,0,1-4,4A4,4,0,0,1-12234,10577.882Z" transform="translate(12285.001 -10490)" fill="#ddc28e"/>
</svg>
