<svg id="Layer_2" data-name="Layer 2" xmlns="http://www.w3.org/2000/svg" width="80.882" height="64.783" viewBox="0 0 80.882 64.783">
  <g id="Layer_2-2" data-name="Layer 2" transform="translate(5.088 64.783) rotate(-95)">
    <g id="Layer_1" data-name="Layer 1" transform="translate(0 0)">
      <path id="Контур_9" data-name="Контур 9" d="M2.063,6.944l.253.152a18.236,18.236,0,0,1,1.457,2.9c.842,2.207.211,4.211-.413,6.385-.135.438-.261.893-.387,1.348-.758,2.872.168,7.749,1.5,10.183a18.476,18.476,0,0,1,.842,1.685C7,32.827,8.684,36.163,15.843,41.385a2.594,2.594,0,0,1,1.213,1.979c.109,1.558-1.146,3.437-2.687,5.18a14.588,14.588,0,0,0-4.262,2.384,5.382,5.382,0,0,0-1.845,4.153,39.7,39.7,0,0,0-3.411,5.568,8.651,8.651,0,0,0-1.946.455C.117,62.257.5,65.508.774,67.883c.067.539.126,1.044.152,1.482,0,.842.067,1.744.084,2.611A36.759,36.759,0,0,0,.32,76.012a8.734,8.734,0,0,1,1.626.093q-.067-1.5-.076-2.982V72.061c.109-.514.227-1.044.362-1.592a42.722,42.722,0,0,1,1.8-5.846q.632-1.642,1.39-3.184c1.685-.253,3.563-.59,4.085-2.611a4.371,4.371,0,0,0-.152-2.165c-.051-.211-.1-.413-.135-.623a6.923,6.923,0,0,1-.093-.7q.48-.649.985-1.263c.362-.438,1.019-1.078,1.786-1.819A41.727,41.727,0,0,0,14.917,49.2l.463-.185c.615-.253,1.247-.505,1.853-.783a.421.421,0,0,0,.211-.556.438.438,0,0,0-.564-.211l-.842.362c1.162-1.533,2-3.125,1.9-4.574a3.479,3.479,0,0,0-1.558-2.6C9.357,35.6,7.774,32.473,6.1,29.18c-.286-.539-.573-1.112-.842-1.685-1.263-2.3-2.139-6.873-1.423-9.568.118-.446.253-.884.379-1.322.665-2.283,1.3-4.439.4-6.907a16.921,16.921,0,0,0-.783-1.685C6.443,9.7,9.8,12.3,10.949,16.175a9.215,9.215,0,0,1,.345,2.038c-.067.261-.143.522-.219.775-.16.573-.337,1.162-.455,1.752-.59,2.872-1.2,5.837-.118,8.954a6.536,6.536,0,0,0,1.423,2.274,28.275,28.275,0,0,0,2.451,4.211,18.32,18.32,0,0,1,1.979,3.462.4.4,0,0,0,.312.261.446.446,0,0,0,.4-.126.531.531,0,0,0,.1-.194A5.563,5.563,0,0,0,15.489,34.6c-.371-.362-.724-.766-1.061-1.154l-.682-.766c-.185-.2-.371-.387-.556-.573l-.59-.623a13.359,13.359,0,0,1-.935-7.808,25.934,25.934,0,0,0,.455-5.391c.1-.354.185-.716.253-1.078.328.472.674.927,1.011,1.373l.1.135c-.345,2.325.455,4.692,2.375,7.042a.43.43,0,0,0,.539.093.413.413,0,0,0,.177-.514c-.64-1.685-1.112-3.066-1.44-4.262.177.3.354.615.505.943a28.815,28.815,0,0,1,2.047,6.359,4.194,4.194,0,0,0-1.011,4.388,5.837,5.837,0,0,1,.177,1.247c0,.522.32.59.43.6.775.059,1.381-2.872,1.381-2.906a10.95,10.95,0,0,0-.051-3.032,9.526,9.526,0,0,1,2.443-1.213l.842-.345c.135.421.295.842.463,1.23a6.528,6.528,0,0,1,.691,2.628,7.117,7.117,0,0,1-.606,2.721,19.954,19.954,0,0,0-4.009,6.174.446.446,0,0,0,0,.387.421.421,0,0,0,.328.194h0c1.306,0,4.035-5.66,4.152-5.9l.177-.371A9.712,9.712,0,0,1,27.1,31.724a10.571,10.571,0,0,1-.463,4.852c-1.373,1.331-3.546,3.959-2.948,5.205a.413.413,0,0,0,.261.227.446.446,0,0,0,.345-.051c1.339-.842,2.527-2.839,3.184-4.995a4.936,4.936,0,0,1,.64-.539,10.723,10.723,0,0,1,3.369-1.365c.606-.168,1.23-.337,1.887-.573a10.293,10.293,0,0,1-1.373,5.1,8.507,8.507,0,0,0-1.685.312c-.4.11-2,1.12-2.08,1.845a.573.573,0,0,0,.371.573c.682.278,2.468-.194,3.613-1.55l.278-.379c.59,0,1.188,0,1.769-.051h1.2c.354,0,1.331,0,2.468.051h.337a10.158,10.158,0,0,1-1.685,1.449,14.479,14.479,0,0,1-2.7,1.466,18.168,18.168,0,0,1-9.9.927A9.5,9.5,0,0,0,21.47,42.69a1.179,1.179,0,0,0-1,.076.581.581,0,0,0-.2.783c.253.48,1.541,1.087,3.369,1.466a10.049,10.049,0,0,1,2.148,2.072l.051.084a12.634,12.634,0,0,1,.985,1.634c1.179,2.165,2.8,5.138,7.033,6.4,4.7,1.407,9.956,0,13.089-.842a18.069,18.069,0,0,1,2.156-.514,4.548,4.548,0,0,1,1.887.2,11.851,11.851,0,0,0,1.819,3,.413.413,0,0,0,.4.135.43.43,0,0,0,.312-.286,2.577,2.577,0,0,0-.472-2.527A3.689,3.689,0,0,0,51.6,53.354c0-.11-.093-.219-.143-.32a15.684,15.684,0,0,0-1.912-3.428c-1.449-1.853-5.273-3.277-10.234-3.917l-.413-.042.337-.286a.446.446,0,0,0,.236.152c6.553,1.558,9.4-3.42,11.278-6.738.733-1.28,1.423-2.527,1.954-2.527a.43.43,0,0,0,.362-.32.421.421,0,0,0-.168-.446,3.049,3.049,0,0,0-.842-.337c.286-.539.556-1.087.842-1.626,1.516-2.99,2.94-5.812,5.264-7.176A.413.413,0,0,0,58.37,26a.43.43,0,0,0-.168-.362,9.434,9.434,0,0,0-5.365-1.1,4,4,0,0,0-1.685.514,6.738,6.738,0,0,0,.328-1.306,15.018,15.018,0,0,0-1-6.9c-.084-.244-.152-.43-.185-.564a24.348,24.348,0,0,0-.884-2.527.43.43,0,0,0-.463-.236.4.4,0,0,0-.286.219,8.027,8.027,0,0,0-.842-3.428.421.421,0,0,0-.505-.194.463.463,0,0,0-.2.152,6.545,6.545,0,0,0-.328-.994.413.413,0,0,0-.421-.27.421.421,0,0,0-.278-.168,3.546,3.546,0,0,0-.994,0,.421.421,0,0,0-.185-.455,2.527,2.527,0,0,0-1.3-.194.43.43,0,0,0-.278-.4,13.67,13.67,0,0,0-7.286-.472l-1.255.261L34.9,7.39a.413.413,0,0,0,0-.4.43.43,0,0,0-.295-.244,9.408,9.408,0,0,0-7.092,2.232c.328-1.23.547-2.24.573-2.4a7.5,7.5,0,0,0,.067-1.356,6.907,6.907,0,0,1,0-1.028.421.421,0,0,0-.286-.455.413.413,0,0,0-.5.185A13.477,13.477,0,0,1,24.089,7.9C24.67,5.15,24.881,1.831,22.733.1a.4.4,0,0,0-.472,0,.421.421,0,0,0-.211.43c.387,2.367-1.2,4.1-3.024,6.115a19.836,19.836,0,0,0-3.192,4.211l-.118.227c-1.247,2.4-2.106,4.085-2.03,6.519a21.815,21.815,0,0,1-1.263-1.811.43.43,0,0,0-.472-.177.4.4,0,0,0-.27.219C10.217,11.02,5.677,8.123,2.931,6.48a4.414,4.414,0,0,0-1.87-1.912.9.9,0,0,0-.842.16A.59.59,0,0,0,0,5.242C0,5.748.673,6.118,2.063,6.944ZM3.234,64.312a42.358,42.358,0,0,0-1.5,4.59,11.028,11.028,0,0,0-.118-1.12c-.278-2.333-.59-4.986,1.6-5.9A5.728,5.728,0,0,1,4.4,61.575C3.984,62.476,3.6,63.386,3.234,64.312Zm5.441-5.694c-.337,1.306-1.474,1.685-2.8,1.9A37.187,37.187,0,0,1,8.406,56.3a2.233,2.233,0,0,0,.118.522,3.689,3.689,0,0,1,.152,1.794ZM11.3,51.652a25.933,25.933,0,0,0-1.853,1.9l-.168.2a4.666,4.666,0,0,1,1.39-2.2,10.63,10.63,0,0,1,2.24-1.474c-.556.564-1.12,1.095-1.609,1.575Zm3.58-16.45a5.635,5.635,0,0,1,1.407,2.468c-.371-.64-.842-1.289-1.247-1.963-.244-.362-.489-.724-.733-1.1.185.2.379.4.573.6Zm9.771,5.332a10.663,10.663,0,0,1,1.129-1.685A8.751,8.751,0,0,1,24.653,40.534Zm4.708.977a4.574,4.574,0,0,1,1.2-.842,6.957,6.957,0,0,1,.724-.168A3.858,3.858,0,0,1,29.362,41.511Zm-11.5-9.905a7.37,7.37,0,0,1-.3,1.1v-.118a3.487,3.487,0,0,1,.337-3.108,11.093,11.093,0,0,1-.034,2.123ZM38.922,44.535a7.766,7.766,0,0,1-1.3.952c-4.161-.32-7.96.093-10.183,1.137a.43.43,0,0,0-.244.345.413.413,0,0,0,.177.379c.076.059,2,1.4,5.584.505l1.263-.295a12.171,12.171,0,0,0,3.681-1.23c4.776.413,9.467,1.786,11.017,3.731A14.033,14.033,0,0,1,50.6,52.975a5.425,5.425,0,0,0-1.525-.059,18.532,18.532,0,0,0-2.291.539c-3.049.842-8.162,2.215-12.634.842-3.9-1.162-5.357-3.841-6.528-6A14.774,14.774,0,0,0,26.6,46.616a8.036,8.036,0,0,0-1.331-1.44,19.154,19.154,0,0,0,8.92-1.12,15.372,15.372,0,0,0,2.872-1.55A10.722,10.722,0,0,0,39.4,40.383c1.44,0,2.392.051,3.024,0l-.842,1.095A25.268,25.268,0,0,1,38.9,44.535ZM36.075,46.22c-.606.2-1.263.345-2.013.522-.4.084-.842.185-1.28.295a7.353,7.353,0,0,1-4.068,0,21.554,21.554,0,0,1,7.336-.783Zm5.9-1.3A14.53,14.53,0,0,0,49.189,39.8c-1.541,2.518-3.613,5.1-7.235,5.155ZM45.963,9.546a8.288,8.288,0,0,1-.842,1.314l-.084.126c-.328.455-.623.893-.918,1.381l.152-.354c.371-.893.977-2.308,1.676-2.4ZM36.277,8.03a13.081,13.081,0,0,1,4.211-.185c-.547.067-1,.135-1.162.168a7.581,7.581,0,0,0-2.2.75,11.531,11.531,0,0,0-3.007,2.628.43.43,0,0,0,0,.514.4.4,0,0,0,.48.143,9.939,9.939,0,0,0,1.946-1.028c.4-.253.783-.489,1.188-.691a15.759,15.759,0,0,1,3.538-1.061l.64-.126a3.622,3.622,0,0,0-.531.371,11.725,11.725,0,0,1-1.036.842c-.253.185-.505.371-.75.564a6.738,6.738,0,0,0-1.272,1.373A3.041,3.041,0,0,0,37.06,14.92a.43.43,0,0,0,.328.379.421.421,0,0,0,.455-.2,8.541,8.541,0,0,0,.505-1.044,8.549,8.549,0,0,1,.413-.842,2.822,2.822,0,0,1,.177-.3,7.345,7.345,0,0,1,.75-.505l.253-.16A18.7,18.7,0,0,1,43.8,10.111h.076c.194-.076.371-.152.547-.211a11.631,11.631,0,0,0-.952,1.9c-.152.345-.286.674-.4.884a41.769,41.769,0,0,1-4.54,6.258.413.413,0,0,0-.059.556.421.421,0,0,0,.556.109c1.423-.842,4.582-4.548,5.408-6.031a21.218,21.218,0,0,1,1.263-1.988l.084-.118c.227-.312.421-.59.59-.842a7.362,7.362,0,0,1,.135,2.19v.227a12.1,12.1,0,0,1-.227,1.87c-.067.143-.143.295-.219.438-.649,1.272-1.011,2.022-.842,2.476a.421.421,0,0,0,.295.286.43.43,0,0,0,.4-.1,5.2,5.2,0,0,0,1.162-2.847,8.887,8.887,0,0,0,.489-1.095c.093-.253.168-.505.236-.758a16.753,16.753,0,0,1-.1,3.209l-.194.32-.067.118a6.1,6.1,0,0,0-.194,2.224.418.418,0,0,0,.825.093,21.965,21.965,0,0,0,.446-2.527,7.968,7.968,0,0,0,.64-1.322c.152.446.286.842.328,1.036a6.11,6.11,0,0,0,.211.632,14.159,14.159,0,0,1,.918,6.561,7.311,7.311,0,0,1-.741,2.19c-.43.261-2.274,1.491-2.047,2.156.076.219.295.438.842.261a3.554,3.554,0,0,0,1.777-1.777,4.4,4.4,0,0,0,.623-.4,3.125,3.125,0,0,1,1.819-.7,9.728,9.728,0,0,1,4.211.632C54.909,27.6,53.536,30.3,52.1,33.156c-.3.6-.606,1.213-.935,1.819a21.748,21.748,0,0,0-2.687-.286,15.481,15.481,0,0,0,2.367-1.626A10.739,10.739,0,0,0,52.954,30.2c.177-.295.345-.6.522-.884a.421.421,0,0,0,0-.472.413.413,0,0,0-.446-.152,17.208,17.208,0,0,1-3.656.379,21.217,21.217,0,0,0-2.527.168A11.068,11.068,0,0,0,48.17,21.22a.446.446,0,0,0-.219-.3.438.438,0,0,0-.371,0,53.714,53.714,0,0,0-5.466,2.822,31.78,31.78,0,0,0,1.516-4.894l.135-.531h0a.421.421,0,0,0-.295-.514.413.413,0,0,0-.421.126c-.126.076-.547.312-.96.531a48.086,48.086,0,0,0-6.1,3.757,33.817,33.817,0,0,0,.227-3.563,26.177,26.177,0,0,1,.438-4.447.455.455,0,0,0-.109-.387.438.438,0,0,0-.387-.118,15.549,15.549,0,0,0-3.976,1.272,65.7,65.7,0,0,1,2.106-6.4c.64-.143,1.3-.32,1.971-.472Zm-8.97-2.392a5.171,5.171,0,0,1-.051.8,34.434,34.434,0,0,1-.952,3.672c-.093.1-.185.211-.27.32-1.028,1.263-1.474,2.527-1.188,3.31a.43.43,0,0,0,.556.253c.531-.219,1.146-1.8,1.685-3.453A9.063,9.063,0,0,1,33.86,7.525l-.168.337c-3.015.842-5.6,2.089-6.57,5.534a.413.413,0,0,0,.286.514.421.421,0,0,0,.522-.286c.792-2.8,2.8-3.984,5.34-4.759-.657,1.685-1.3,3.875-1.9,5.9-.076.278-.16.556-.244.842A6.738,6.738,0,0,0,28.166,21.2a1.559,1.559,0,0,1-.059.539.421.421,0,0,0,.185.4.758.758,0,0,0,.665.109c.632-.194,1.12-1.146,1.685-2.628.051-.135.093-.244.126-.312a29.606,29.606,0,0,0,1.061-3.175A12.357,12.357,0,0,1,35.7,14.659a30.255,30.255,0,0,0-.32,3.959,25.868,25.868,0,0,1-.438,4.414c-1.634,1.423-2.645,2.9-2.367,4.3a.522.522,0,0,0,.43.438c.708.1,1.744-1.777,1.752-1.8a9.956,9.956,0,0,0,.935-2.476,41.786,41.786,0,0,1,6.738-4.3l.211-.118a21.967,21.967,0,0,1-2.022,5.635c-.227.185-.387.328-.522.446S37.9,27.15,38.408,27.8c.261.387.75.135.91.051a.489.489,0,0,0,.126-.093,15.339,15.339,0,0,0,1.828-2.485A35.09,35.09,0,0,1,47.463,21.9a9.99,9.99,0,0,1-1.727,7.53h0a12,12,0,0,0-4.793,2.636c-.446.379-.615.8-.463,1.137.093.211.337.455.952.371a9.737,9.737,0,0,0,4.793-3.369l.489-.093a23.979,23.979,0,0,1,2.721-.211,26.952,26.952,0,0,0,2.889-.211v.076a10.183,10.183,0,0,1-1.946,2.645,20.131,20.131,0,0,1-3.512,2.257,5.762,5.762,0,0,0-3.2.708.718.718,0,0,0-.278.842c.2.43.842.345,1.078.312a7.336,7.336,0,0,0,2.527-.927l.126-.067a23.306,23.306,0,0,1,3.757.219c-2.207,3.832-5.054,7.648-10.832,8.827a31.754,31.754,0,0,0,2.148-2.527A14.244,14.244,0,0,1,43.8,40.214a.421.421,0,0,0-.48-.691,27.146,27.146,0,0,1-3.26,0,34.938,34.938,0,0,0,1.878-2.973l.649-1.1a.43.43,0,0,0,0-.505.421.421,0,0,0-.5-.093,9.358,9.358,0,0,1-2.266.623c-.3.051-.6.109-.893.177s-.59.1-.893.143H37.81c1.306-2.24,2.392-5.29,1.592-7.008a.421.421,0,0,0-.278-.227c-1.685-.413-5.34-.093-7.867.48l.126-.531a6.5,6.5,0,0,1,.177-.64,33.321,33.321,0,0,0,.691-3.369c.1-.59.211-1.2.244-1.322a.438.438,0,0,0-.051-.354.446.446,0,0,0-.3-.185,12.55,12.55,0,0,0-5.694,1.4,40.717,40.717,0,0,0-.691-6.393c-.076-.261-.185-.96-.286-1.575a15.053,15.053,0,0,0-.3-1.584.421.421,0,0,0-.345-.278.438.438,0,0,0-.4.177L23.988,15a38.552,38.552,0,0,1-3.563,4.574,1.373,1.373,0,0,0-.143.168,10.9,10.9,0,0,1,1.449-4.506,16.6,16.6,0,0,0,1.415-3.5c.059-.253.16-.59.278-.977s.328-1.112.5-1.777a10.621,10.621,0,0,0,3.386-3.352Zm3.369,11.4A18.64,18.64,0,0,1,30,18.955a1.774,1.774,0,0,1-.143.345,10.309,10.309,0,0,1-.842,1.819A6.056,6.056,0,0,1,30.7,17.034Zm3.731,7.682a7.793,7.793,0,0,1-.413.842,7.429,7.429,0,0,1-.6.884,4.144,4.144,0,0,1,1.036-1.727Zm10.234,6.022a9.265,9.265,0,0,1-3.1,1.979,12.188,12.188,0,0,1,3.1-1.979ZM16.492,11.416l.126-.227a19.625,19.625,0,0,1,3.058-4.018c1.609-1.752,3.133-3.428,3.3-5.584,1.112,1.794.7,4.666.135,6.94q-6.039,3.268-8.347,6.848a19.112,19.112,0,0,1,1.727-3.959Zm6.326-1.769c-.1.362-.2.691-.286.977s-.219.75-.286,1.019A16,16,0,0,1,20.9,14.962a10.857,10.857,0,0,0-1.525,6.444,9.609,9.609,0,0,0-.59,4.607.741.741,0,0,0,.556.6.842.842,0,0,0,.783-.219c.8-.792.337-3.327.328-3.369a14.4,14.4,0,0,1-.236-1.516,3.959,3.959,0,0,1,.724-1.247,37.161,37.161,0,0,0,3.521-4.489,3.666,3.666,0,0,0,.084.531c.118.7.227,1.356.312,1.685A38.451,38.451,0,0,1,25.5,24.3v.387a5,5,0,0,0-1.794,2.072.505.505,0,0,0,.185.632.994.994,0,0,0,1.171-.236,3.967,3.967,0,0,0,1.2-1.963,12.348,12.348,0,0,1,5.222-1.609l-.16.842c-.194,1.078-.48,2.7-.657,3.192a7.521,7.521,0,0,0-.194.733,9.485,9.485,0,0,1-.27.977c-.969.278-1.634.6-1.685.918,0,.051-.109.505.489.665A1.516,1.516,0,0,0,30.2,30.78a1.845,1.845,0,0,0,.64-.724c2.114-.522,5.795-1.078,7.816-.682.328.985,0,2.721-.927,4.7a17.443,17.443,0,0,1-1.095,2,3.993,3.993,0,0,0-1.028.463,1.752,1.752,0,0,0-.792.893s-.143.792.185,1.07a.489.489,0,0,0,.489.067A5.66,5.66,0,0,0,37.17,36.8l.295-.067.665-.1c.312-.042.632-.084.952-.16l.842-.168c.446-.084.893-.168,1.339-.286a.843.843,0,0,1-.067.118,27.854,27.854,0,0,1-2.182,3.369H38c-.977,0-1.786-.051-2.257-.051H33.06a9.957,9.957,0,0,0,1.129-5.7.413.413,0,0,0-.219-.278.4.4,0,0,0-.354,0,17.95,17.95,0,0,1-2.291.733,12.247,12.247,0,0,0-3.445,1.356,9.585,9.585,0,0,0,0-4.532.43.43,0,0,0-.505-.295,9.956,9.956,0,0,0-3.647,1.777,7.016,7.016,0,0,0,.219-1.55,7.362,7.362,0,0,0-.758-2.973,13.411,13.411,0,0,1-.564-1.592.413.413,0,0,0-.227-.286.455.455,0,0,0-.362,0c-.379.185-.8.354-1.255.531A11.877,11.877,0,0,0,18.446,27.8a28.638,28.638,0,0,0-2.064-6.14,17.688,17.688,0,0,0-1.744-2.771q-.076-.556-.1-1.061c.876-2.83,3.656-5.568,8.28-8.179ZM19.566,25.727a6.915,6.915,0,0,1,.118-2.139,4.692,4.692,0,0,1-.118,2.139Z" transform="translate(0.003 -0.02)" fill="#ddc28e"/>
    </g>
  </g>
</svg>
