<svg xmlns="http://www.w3.org/2000/svg" width="27.092" height="50.874" viewBox="0 0 27.092 50.874">
  <g id="Контур_667" data-name="Контур 667" transform="translate(29.135 -3.063) rotate(90)" fill="#ddc28e" opacity="0.75">
    <path d="M26.089,2.96a3.631,3.631,0,0,1,4.823,0L42.6,14.865l.023.023L53.32,25.5c1.5,1.493.085,3.639-2.4,3.631L29.3,13.8l-.388-.131-.4.131L6.082,29.135C3.595,29.143,2.175,27,3.68,25.5l10.7-10.616.023-.023L15.448,13.8Z" stroke="none"/>
    <path d="M 28.5 3.043203353881836 C 27.81600952148438 3.043203353881836 27.18132019042969 3.273822784423828 26.80220031738281 3.660102844238281 L 15.117431640625 15.56566333770752 C 15.10678863525391 15.57650279998779 15.09606170654297 15.58728313446045 15.08517837524414 15.59808349609375 L 4.384601593017578 26.21394348144531 C 4.079250335693359 26.51687240600586 3.991531372070312 26.83339309692383 4.123870849609375 27.15468215942383 C 4.30078125 27.58420562744141 4.888885498046875 28.04353332519531 5.790477752685547 28.12285804748535 L 28.06582069396973 12.89553260803223 L 28.91420936584473 12.61578369140625 L 29.75781059265137 12.90029335021973 L 51.21851348876953 28.12204933166504 C 52.11491394042969 28.04044342041016 52.69969177246094 27.58270072937012 52.87602996826172 27.15457344055176 C 53.00836944580078 26.83328247070312 52.92068099975586 26.51681327819824 52.61539840698242 26.21395301818848 L 41.91477203369141 15.59804344177246 C 41.90393829345703 15.58729267120361 41.8931999206543 15.57649326324463 41.88237762451172 15.56547260284424 L 30.19779968261719 3.660102844238281 C 29.81867027282715 3.273822784423828 29.18398094177246 3.043203353881836 28.5 3.043203353881836 M 28.5 2.043203353881836 C 29.40592765808105 2.043203353881836 30.31185531616211 2.348682403564453 30.91148948669434 2.95964241027832 L 42.5960693359375 14.86501312255859 C 42.60369110107422 14.87277221679688 42.61137008666992 14.88050270080566 42.61911773681641 14.88819313049316 L 53.3196907043457 25.50404357910156 C 54.82464981079102 26.99709320068359 53.40457153320312 29.14310455322266 50.91790008544922 29.13483238220215 L 29.29907035827637 13.80092239379883 L 28.91064071655273 13.66992378234863 L 28.51334953308105 13.80092239379883 L 6.082088470458984 29.13483238220215 C 6.077384948730469 29.13484954833984 6.072357177734375 29.13485717773438 6.067657470703125 29.13485717773438 C 3.58929443359375 29.13485717773438 2.178195953369141 26.99425888061523 3.680309295654297 25.50403213500977 L 14.38088989257812 14.88817310333252 C 14.38862991333008 14.8804931640625 14.39630126953125 14.87278366088867 14.40391159057617 14.86503219604492 L 26.08851051330566 2.95964241027832 C 26.68814468383789 2.348682403564453 27.59407234191895 2.043203353881836 28.5 2.043203353881836 Z" stroke="none" fill="rgba(112,112,112,0.12)"/>
  </g>
</svg>
